<?xml version="1.0" encoding="UTF-8"?>
<svg width="390" height="390" enable-background="new 0 0 100 100" version="1.1" viewBox="0 0 390 390" xml:space="preserve" xmlns="http://www.w3.org/2000/svg"><g transform="translate(-10.056 2.1062)" stroke-width="4.0677"><g fill="none"><path d="m254.75 200.24 0.17066 0.23764-0.17066-0.23764c-0.0397-0.0667-3.0916-5.6826-9.6121-5.6826-1.6589 0-3.167 0.47945-4.552 1.3216 1.3851-0.83799 2.8892-1.3174 4.5481-1.3174 6.5205 0 9.5804 5.6158 9.6161 5.6784z"/><path d="m254.25 209.86c-0.22225-0.12924-0.79374-0.39607-1.5637-0.66289 0.76596 0.27099 1.3374 0.53365 1.5637 0.66289z"/><path d="m243.43 231.68c0.79374 0.24598 0.67865-1.4467 1.1311-1.5676 0.47227-0.13341 0.47227-0.13341 0.47624-0.13341l-1.0438-0.47529c-0.56356-0.12508-1.3771 1.9178-0.56356 2.1763z"/><path d="m235.12 219.05c1.2422 1.5468 6.3499 6.5706 19.002 6.5706h0.4564c12.644 0 17.764-4.9988 19.03-6.5456 0.82945-1.0131 1.0596-1.7094 1.0398-1.8886-0.0397-0.0584-0.36512-0.32103-0.47227-0.41692-0.90486 0.43359-1.9605 0.43359-3.5797 0.0834-1.0993 0.59619-2.3098 0.87136-4.552 0.15843-1.5875 1.0923-6.2149 1.1132-6.2745 1.1132-1.6827 0-4.1036-0.47944-4.691-0.60035-0.62705 0.12507-3.171 0.60035-4.8775 0.60035-0.0555 0-4.6473-0.0416-6.2308-1.1132-2.3812 0.75462-3.5162 0.41691-4.5878-0.15843-1.778 0.31686-3.3099 0.0959-4.4012-0.42525-0.23416-0.0959-0.55165-0.11674-0.72231-0.25848l0.86914-1.1465c0-4e-3 -4e-3 -4e-3 -4e-3 -4e-3l-0.87311 1.1507c0.17065 0.14174 0.48814 0.1626 0.72229 0.25848-0.32543 0.27516-0.83341 0.70042-0.90882 0.81299 0.0119 0.12508 0.22225 0.82133 1.0557 1.8094z"/><path d="m247.34 229.85c-0.46831-0.23765-1.9407 2.1805-1.147 2.3014 0.81357 0.12507 0.92867-0.35437 1.397-1.3216 0.45243-0.97975-0.25002-0.97975-0.25002-0.97975z"/><path d="m229.44 133.12c-0.17858 0.0668-0.35717 0.13341-0.55957 0.20429-0.5318 0.19595-1.135 0.41691-1.8335 0.71293-3.417 1.43-7.0801 2.1054-11.521 2.1054h4e-3c4.437 0 8.1-0.67541 11.525-2.1054 0.69849-0.29602 1.3017-0.5128 1.8335-0.71293 0.19842-0.0751 0.37702-0.13758 0.55164-0.20429z"/><path d="m188 372.6c-3.4766-0.35856-7.0483-0.28351-10.43-0.85469 3.3813 0.57118 6.9531 0.49613 10.43 0.85469z"/><path d="m229.61 129.23c-1.6827-3.2561-3.413-6.629-7.4412-9.8267-3.667-2.9351-6.2388-4.3067-8.4255-4.486h4e-3c2.1907 0.18344 4.7544 1.5509 8.4136 4.486 4.0282 3.1978 5.7665 6.5706 7.4492 9.8267z"/><path d="m190.98 123.06c-0.45243-0.15842-0.67863-0.25849-0.82945-0.25849 0.14684 0 0.37306 0.10007 0.82945 0.25849 0.73024 0.27934 1.9605 0.75462 4.4727 1.4509 4.7068 1.0715 10.354 1.6677 15.51 1.6677h4e-3c-5.1593 0-10.807-0.59619-15.51-1.6677-2.5122-0.69624-3.7385-1.1715-4.4766-1.4509z"/><path d="m230.79 132.31c0.15479-0.41691-0.31749-1.4092-0.75007-2.2222l-0.43259-0.85467 0.42862 0.85467c0.42862 0.81299 0.90088 1.8052 0.75404 2.2222z"/><path d="m239.34 215.38 0.22623-0.0417 0.21033 0.0959c1.0001 0.51698 1.905 0.81298 4.1195 0.0625l0.9247-0.31268v0.7171c0.76992 0.3502 3.6035 0.75461 5.3775 0.75461s4.7188-0.58369 4.7426-0.58369l0.13096-0.0166 0.13097 0.0166c0.0317 0 2.7939 0.58369 4.5481 0.58369 1.774 0 4.6314-0.40441 5.4014-0.75461v-0.7171l0.92074 0.31268c2.2304 0.79214 3.0995 0.4336 4.0996-0.0625l0.21033-0.0959 0.22621 0.0417c1.1073 0.21262 1.8018 0.31268 2.3336 0.296-2.8694-2.3097-8.7033-6.3288-11.819-6.3288-4.0798 0-6.1594 1.3883-6.1792 1.3883l-0.10319 0.0792-0.98422-0.0584c-0.0198-0.0208-2.1748-1.4092-6.2745-1.4092-2.9646 0-8.3778 3.673-11.39 6.0286h8e-3c0.76992 0.18345 1.7541 0.26267 3.1392 4e-3z"/><path d="m265.01 229.62c-0.94455 0.11674-1.4009 0.61286-1.4009 0.61286 0.92471 0.60036 2.532 2.3014 2.413 3.1352-0.11113 0.85051 1.8573-0.61286 1.2858-2.4223-0.57545-1.8094-1.389-1.4467-2.2979-1.3258z"/><path d="m279.75 210.08c-3.552-7.5045-7.9135-15.522-14.589-15.522-3.4408 0-5.8816 1.5593-7.4452 3.0435 1.5676-1.4842 4.0044-3.0393 7.4452-3.0393 6.6713 0 11.037 8.0173 14.589 15.518 2.9447 6.162 6.6316 8.0465 8.2707 8.5885-1.4525 1.5634-5.3259 5.8702-8.2548 10.636l-0.79375 1.33c-3.3773 5.5575-5.0561 8.3216-11.485 9.5098 6.4332-1.1882 8.1119-3.9565 11.489-9.514l0.7977-1.3341c2.9289-4.7653 6.8023-9.0721 8.2588-10.636-1.647-0.53783-5.3299-2.4264-8.2826-8.5801z"/><path d="m154.5 90.81c-0.98422 31.581-7.973 87.715 23.24 129.64 33.238 44.606 54.478 63.997 83.084 56.234 17.307-4.682 34.821-22.922 46.064-45.99h-4e-3c-13.192-9.1721-23.526-30.731-34.313-55.7-11.946-27.575-28.701-47.92-52.755-63.997-16.569-11.073-45.159-18.023-65.32-20.187m90.029 83.125 2.0637-0.31685c0.0794 0.59618 1.0398 5.7784 7.2746 5.7784 6.0403 0 6.211-5.8743 6.211-6.5497h4.1631c0 3.7731-2.1788 10.919-10.374 10.919-8.0127 0-10.961-6.2329-11.398-9.5349zm-36.412-37.297c-9.0247-1.2132-15.47-4.2108-19.268-6.5122-1.8335-1.1298-2.532-1.7844-2.663-2.5182-0.0952-0.61704 0.24606-1.134 0.67865-1.6677 0.36115-0.41691 0.68261-1.0923 0.98424-1.7469 0.51195-1.0298 0.98421-2.0262 1.6827-2.3014 0.20637-0.0626 0.39688-0.1209 0.62308-0.1209 0.34131 0 0.60325 0.1209 1.1708 0.31685 0.71834 0.27933 1.9288 0.73377 4.3655 1.43 4.6116 1.034 10.203 1.6301 15.287 1.6301 3.2543 0 5.9371-0.23765 7.1833-0.65455l0.23017-0.0834c1.5716-0.51697 3.0598-0.99225 3.2305-1.5301 0.0555-0.23764-0.13096-0.57534-0.3016-0.83382-0.98424-1.3883-7.1238-5.6158-9.4097-7.1251-0.17065-0.11674-0.26193-0.33354-0.21034-0.53365 0.0397-0.2168 0.19447-0.37523 0.4048-0.41691 2.7741-0.47947 5.8895 0.79213 10.668 4.6027 4.1988 3.3562 5.9689 6.8082 7.7071 10.164l0.43259 0.85468c0.7223 1.3716 1.0914 2.3222 0.80962 3.0977-0.29766 0.7963-1.1271 1.1132-2.5122 1.6093-0.51196 0.20013-1.1112 0.41692-1.7859 0.69209-3.5519 1.4884-7.3301 2.1846-11.898 2.1846-2.274 0-4.7664-0.17927-7.4095-0.53782zm81.139 82.128c-0.0555 0.0334-5.1235 5.2198-8.6874 11.048l-0.81359 1.33c-4.9846 8.2132-6.4967 10.698-24.562 10.698h-0.0357c-18.105 0-19.613-2.489-24.622-10.74l-0.79373-1.2924c-3.5559-5.8326-8.5961-11.019-8.6556-11.052l-0.67865-0.69625 0.94058-0.13758c0.0317-0.0208 4.7981-0.77546 8.3659-8.2716 3.8814-8.1174 8.2588-16.043 15.422-16.043 5.7824 0 8.9692 3.9524 10.029 5.52 1.0477-1.5884 4.2147-5.52 10.001-5.52 7.1992 0 11.735 8.28 15.418 16.043 3.5956 7.5003 8.3779 8.2508 8.4096 8.2758l0.94455 0.13758z"/><path d="m252.2 230.23c-0.81358-0.12507-2.3058 1.4425-2.0756 2.5182 0.23018 1.0923 1.1311-0.95473 1.9685-1.4509 0.78976-0.47111 0.10715-1.0715 0.10715-1.0673z"/><path d="m257.85 232.15c0.47228 1.455 0.69849 1.947 0.69849 1.947 0.7977 0.11674 1.139-2.4223 0.68261-2.7975-0.45639-0.35853-1.8534-0.59618-1.3811 0.85051z"/><path d="m275.19 218.42c0.40083-0.75878 0.47226-1.3091 0.25002-1.6885-0.51195-0.84634-5.7784-5.1156-10.275-7.196 4.4925 2.0804 9.755 6.3413 10.267 7.1918 0.22622 0.38356 0.15479 0.92555-0.24208 1.6927-1.6073 3.031-7.7667 8.1507-20.613 8.1507h-0.45639c-11.271 0-17.363-3.9315-19.776-6.95 2.409 3.0226 8.5048 6.9542 19.784 6.9542h0.44845c12.851 0 19.014-5.1156 20.613-8.1549z"/><path d="m255.18 240.9c3.0043 0 5.5125-0.0709 7.6556-0.22097-2.1431 0.1501-4.6552 0.22097-7.6556 0.22097z"/></g><path d="m103.17 47.117s-4e-3 0.0042-8e-3 0.0042c4e-3 0 8e-3 -0.0042 8e-3 -0.0042 0.79372-2.5057 1.8534-4.9655 2.7582-7.4503-11.45 8.1799-21.788 17.865-31.102 28.584 0.05953 2.0512 0.0038 4.2108 0.09525 6.2162h0.0076s-0.0038 0.0038-0.0076 0.0086c1.6986 35.75 11.279 63.796 29.305 87.894-12.069-40.32-12.505-78.91-1.0557-115.25z"/><path d="m125.99 77.902c6.7269-24.89 18.367-44.902 29.213-58.318-4e-3 0-8e-3 0.0042-0.0119 0.0042l4e-3 -0.0042c1.643-2.0637 3.2503-3.9899 4.8576-5.6992-16.252 4.5069-31.555 11.373-45.632 20.266-0.88898 2.1471-1.5914 4.3276-2.3852 6.4914 4e-3 0 4e-3 0.0042 8e-3 0-15.633 42.108-14.879 87.419 2.8852 135.24 0.0754 0.21679-0.0555 0.41691-0.0198 0.63371 0.0754 0.41691 0.0754 0.73377-0.0159 1.1507-0.0953 0.41691-0.21035 0.71292-0.43656 1.0715-0.13096 0.17927-0.0912 0.41691-0.24605 0.57535-0.17065 0.16259-0.39687 0.1209-0.56752 0.2418-0.17065 0.11674-0.24605 0.35438-0.43258 0.43359-0.35718 0.13758-0.73817 0.2168-1.0954 0.2168-0.73817 0-1.3811-0.35438-1.9248-0.87135-0.0754-0.0584-0.19049-0.0208-0.24606-0.0959-24.486-26.599-37.639-57.268-40.718-97.483-0.0038 0.0086-0.0076 0.01664-0.01586 0.02082 0-0.0086 0.0038-0.01246 0.0076-0.02082-0.17065-2.143-0.20637-4.4068-0.32146-6.629-4.6473 5.9369-8.8223 12.266-12.751 18.778 0.20637 2.3806 0.20637 5.0197 0.47227 7.3419 4e-3 0 8e-3 -4e-3 0.01191-9e-3 0 4e-3 -4e-3 4e-3 -4e-3 9e-3 7.1595 64.551 36.238 101.49 61.03 121.56 20.578 16.672 41.266 24.581 52.624 27.971-55.931-70.35-55.193-132.54-44.291-172.87z"/><path d="m54.18 216.42c-9.8066-12.312-16.629-25.611-20.748-39.745-1.0755-3.7147-1.9645-7.5045-2.6471-11.357-1.2819 9.0346-2.1709 18.186-2.1709 27.575 0 12.766 1.3216 25.19 3.6472 37.264 1.8335 2.3389 3.6829 4.6194 5.6117 6.7999 43.155 48.571 109.95 56.142 110.88 56.213 1.6629 0.15843 2.8733 1.7094 2.7225 3.4562-0.1508 1.6468-1.4565 2.8726-3.0043 2.8726-0.0952 0-0.1905 0-0.28574-0.0166-0.88899-0.0876-62.26-6.9083-106.81-49.784 0 4e-3 0 9e-3 4e-3 9e-3l-4e-3 -4e-3c-2.1748-2.1054-4.2147-4.4652-6.2903-6.729 2.7225 10.381 6.2745 20.412 10.62 29.993 2.9051 2.9393 5.8339 5.7159 8.7628 8.3175-0.01588-0.0292-0.02381-0.0584-0.03969-0.0876 0.01191 0.0251 0.02778 0.0542 0.03969 0.0834 34.333 30.522 69.856 39.82 97.574 41.05 41.08 1.7719 76.111-13.083 89.128-21.133-36.936-3.1984-140.09-25.904-186.98-84.776z"/><path d="m310.58 263.98c-8.2786 16.789-32.765 57.905-81.774 77.855-35.599 14.492-76.409 14.504-121.74 0.39191-3.9488-1.2299-7.9731-2.7391-11.997-4.1858 21.693 18.077 47.672 30.885 76.468 36.701 5.8181-0.57952 11.354-1.2716 16.458-2.1429-3.4766-0.35856-7.0484-0.27934-10.43-0.85469 3.3813 0.57118 6.9531 0.49613 10.43 0.85469 54.232-9.2555 68.396-33.149 68.59-33.466 0.82945-1.5301 2.659-2.0054 4.1155-1.1507 1.4327 0.87136 1.9248 2.7975 1.1152 4.3067-0.6588 1.2091-11.223 19.491-48.489 31.019-5.4966 1.6802-11.716 3.1977-18.423 4.5277 3.3654 0.19594 6.7467 0.4169 10.148 0.4169 9.4097 0 18.819-0.78797 27.983-2.3222 13.982-2.3431 27.269-6.4997 39.849-11.949 1.893-2.243 3.6274-4.6194 5.4014-6.9667h4e-3c9.8066-12.999 17.684-27.212 23.07-40.412 8.3501-20.487 11.62-39.74 9.2192-52.623z"/><path d="m325.75 190.34-4e-3 -4e-3c-0.96438-3.0393-2.2304-5.916-3.3495-8.8553v4e-3c-3.8896-10.144-8.4099-19.891-14.208-28.821-34.051-52.323-93.327-70.388-124.03-76.441l8e-3 -0.0086c-11.791-2.3222-19.502-2.9393-19.764-2.9559-0.54768-0.04165-0.94454-0.39607-1.3771-0.69625h-0.0278c-0.84136-0.6087-1.4962-1.4634-1.4406-2.6057 0.88898-17.606 11.43-34.341 28.892-45.911 8.2191-5.4616 17.347-9.2097 26.912-11.594v-0.0084c4.8219-1.1924 9.7114-2.0846 14.72-2.5015-8.8263-1.43-17.823-2.4014-27.023-2.4014-11.223 0-22.181 1.2299-32.821 3.3353-1.8891 1.4467-4.0441 3.4145-6.3697 5.816-11.073 11.353-25.943 32.79-34.087 62.963-10.866 40.216-11.168 103.12 49.128 174.4 0.84929 0.99226 1.02 2.4598 0.39686 3.6313-0.52783 1.034-1.5478 1.651-2.6471 1.651-0.1508 0-0.32145-0.0166-0.47226-0.0416-1.3017-0.22097-32.309-5.7159-63.995-31.285-24.732-19.941-53.414-56.092-62.351-117.72v4e-3 -9e-3c-0.36115-2.3806-0.84929-4.5444-1.135-6.9875-6.7269 12.766-11.942 26.462-15.684 40.812-0.01984 5.0238 0.17065 9.9684 0.79373 14.788 0 0 0-4e-3 4e-3 -9e-3 0 4e-3 0 9e-3 -4e-3 0.0125 2.4764 19.412 10.148 37.297 22.994 53.457 52.942 66.448 174.82 82.916 190.29 82.916 0.92073 0 1.8137 0.45028 2.3852 1.2299 0.56752 0.75878 0.76992 1.7677 0.54768 2.7141-1.4922 6.2746-30.912 22.292-67.245 27.708-8.997 1.33-17.688 1.972-26.019 1.972-38.806 0-70.325-13.696-95.454-32.569 0-4e-3 -0.0038-9e-3 -0.0076-0.0125-3.2702-2.464-6.4451-4.9821-9.505-7.6046 7.9929 13.992 17.724 26.758 28.888 38.019 3.3694 1.4092 6.5959 2.4431 9.8979 3.6855 0.0038 4e-3 0.0076 9e-3 0.01187 0.0125 50.545 19.095 95.573 21.179 134.03 5.495 58.768-23.914 81.441-81.061 81.667-81.64 0.44846-1.1465 1.4882-1.9262 2.6828-1.9887 1.2104-0.0208 2.286 0.63371 2.8138 1.7677 6.6118 13.975 4.048 38.29-6.8737 65.047-4.179 10.223-9.878 21.054-16.676 31.527-4e-3 4e-3 -0.0119 9e-3 -0.0159 0.0125-1.5994 2.4848-3.1987 4.9446-4.9291 7.3711 13.66-7.2627 26.225-16.301 37.468-26.841 0.65879-2.5348 1.4486-5.1489 2.0558-7.6462 4e-3 -4e-3 8e-3 -9e-3 0.0119-0.0125 12.347-51.51 12.668-96.078 0.91677-133.18zm-64.923 86.347c-28.606 7.7588-49.846-11.628-83.084-56.234-31.214-41.921-24.225-98.059-23.24-129.64l-4e-3 -0.0038c20.161 2.1638 48.751 9.1138 65.32 20.187 24.054 16.076 40.81 36.422 52.755 63.997 10.791 24.969 21.121 46.528 34.313 55.7h4e-3c-11.243 23.068-28.757 41.308-46.064 45.99z"/><path d="m371.54 240.2c0.28178 4.0316 0.32146 8.38 0.50799 12.524 6.0443-18.82 9.4494-38.898 9.4494-59.827 0-45.298-15.589-86.802-41.381-119.04-5.0442-4.19-10.259-7.9589-15.644-11.273-16.93-10.481-35.353-16.935-55.359-18.72-14.378-1.2924-27.439 0.02085-37.786 2.022 17.403 1.0923 41.282 6.0953 64.614 22.234 1.8534 1.2924 3.6869 2.7808 5.5204 4.1858 1.7383 1.3508 3.4964 2.5807 5.2148 4.0524 8.5723 7.3627 16.097 16.239 23.034 25.945 1.2104 1.6844 2.528 3.2311 3.6988 5.0197 21.312 32.494 34.119 76.875 38.131 132.88" fill="#1a1a1a"/><path d="m280.58 209.65c-3.6829-7.7588-8.2151-16.043-15.418-16.043-5.7824 0-8.9533 3.9315-10.001 5.52-1.0636-1.5676-4.2465-5.52-10.029-5.52-7.1634 0-11.541 7.9214-15.422 16.043-3.5678 7.5003-8.3382 8.2508-8.366 8.2716l-0.94057 0.13758 0.67864 0.69624c0.0595 0.0376 5.0997 5.2198 8.6557 11.052l0.79373 1.2924c5.0085 8.2508 6.5205 10.74 24.622 10.74h0.0357c18.069 0 19.581-2.489 24.562-10.698l0.81359-1.33c3.5638-5.8285 8.6358-11.019 8.6874-11.048l0.68261-0.69625-0.94454-0.13757c-0.0278-0.0292-4.81-0.78381-8.4096-8.28zm-35.436-15.097c6.5205 0 9.5724 5.6158 9.6121 5.6784l0.17066 0.24181-0.17066-0.23764c-0.0397-0.0625-3.0955-5.6784-9.62-5.6784-1.6589 0-3.163 0.47946-4.5481 1.3174 1.389-0.84217 2.8971-1.3216 4.556-1.3216zm9.1081 15.305c-0.22622-0.12924-0.79374-0.39607-1.5637-0.66289 0.76596 0.27099 1.3414 0.53365 1.5637 0.66289zm-6.6634-0.50863c4.0996 0 6.2546 1.3883 6.2744 1.4092l0.98423 0.0584 0.11113-0.0792c0.0198 0 2.0954-1.3883 6.1792-1.3883 3.1114 0 8.9493 4.0191 11.819 6.3288-0.53181 0.0166-1.2263-0.0876-2.3336-0.29601l-0.22623-0.0416-0.21034 0.0959c-1.0001 0.49613-1.8692 0.85468-4.0996 0.0625l-0.92072-0.31268v0.7171c-0.77389 0.3502-3.6313 0.75045-5.4053 0.75045-1.7541 0-4.5203-0.58369-4.5481-0.58369l-0.13096-0.0166-0.13096 0.0166c-0.0238 0-2.9686 0.58369-4.7426 0.58369-1.774 0-4.6076-0.40442-5.3775-0.75463v-0.71709l-0.9247 0.31269c-2.2145 0.75461-3.1194 0.45444-4.1195-0.0626l-0.21033-0.0959-0.22622 0.0417c-1.3851 0.25848-2.3693 0.17927-3.1392 0h-8e-3c3.0043-2.3556 8.4215-6.0286 11.386-6.0286zm-13.339 6.8249 0.8731-1.1507s4e-3 0 4e-3 4e-3l-0.86913 1.1465c0.17066 0.13758 0.48814 0.15843 0.7223 0.25848 1.0914 0.52115 2.6233 0.74211 4.4012 0.42527 1.0755 0.57534 2.2105 0.91304 4.5878 0.15842 1.5835 1.0715 6.1792 1.1132 6.2308 1.1132 1.7065 0 4.2465-0.47111 4.8775-0.60035 0.58339 0.11674 3.0082 0.60035 4.691 0.60035 0.0595 0 4.687-0.0208 6.2745-1.1132 2.2423 0.71292 3.4527 0.43359 4.5521-0.15842 1.6192 0.35437 2.6788 0.35437 3.5797-0.0834 0.10715 0.0918 0.43259 0.35855 0.47227 0.41691 0.0198 0.17928-0.21033 0.87552-1.0398 1.8886-1.266 1.5468-6.3856 6.5456-19.03 6.5456h-0.45639c-12.652 0-17.76-5.0238-19.002-6.5706-0.83342-0.9881-1.0438-1.6843-1.0596-1.8094 0.0754-0.11256 0.57942-0.53782 0.90882-0.81299-0.22622-0.0959-0.54767-0.11673-0.71832-0.25848zm10.319 13.933c-0.45243 0.1209-0.33734 1.8136-1.1311 1.5676-0.81357-0.25849 0-2.3014 0.56752-2.1763l1.0438 0.47529c-8e-3 0-8e-3 0-0.48021 0.13341zm3.0241 0.72126c-0.46433 0.96725-0.57943 1.4509-1.397 1.3216-0.79373-0.11674 0.67864-2.5348 1.147-2.3014 0 0 0.70245 0 0.25002 0.97975zm4.5044 0.47111c-0.8374 0.49614-1.7383 2.539-1.9685 1.4509-0.23019-1.0756 1.262-2.6432 2.0756-2.5182 0-4e-3 0.68261 0.59619-0.10715 1.0673zm2.4883-4.7278h-0.44845c-11.283 0-17.375-3.9315-19.784-6.9542 2.4129 3.0185 8.5088 6.95 19.776 6.95l0.45639 4e-3c12.847-4e-3 19.006-5.1239 20.609-8.159 0.4048-0.76296 0.47227-1.305 0.24605-1.6885-0.51195-0.84634-5.7744-5.1114-10.267-7.1918 4.4965 2.0804 9.7629 6.3455 10.275 7.196 0.22224 0.37939 0.14685 0.93389-0.25002 1.6885-1.5994 3.0393-7.7627 8.1549-20.613 8.1549zm3.9687 7.5253s-0.22621-0.49195-0.69849-1.947c-0.47226-1.4467 0.92471-1.209 1.3811-0.85051 0.45639 0.37523 0.11509 2.9142-0.68261 2.7975zm-3.3654 6.7957c3.0003 0 5.5125-0.0709 7.6556-0.22097-2.1431 0.1501-4.6513 0.22097-7.6556 0.22097zm10.842-7.5295c0.11509-0.83382-1.4882-2.5348-2.413-3.1352 0 0 0.45243-0.49612 1.4009-0.61286 0.90883-0.11674 1.7224-0.47946 2.3018 1.3258 0.56751 1.8094-1.4009 3.2728-1.2898 2.4223zm13.743-4.0774-0.7977 1.3341c-3.3773 5.5575-5.0521 8.3258-11.489 9.514 6.4253-1.1882 8.108-3.9524 11.485-9.5098l0.79375-1.33c2.9289-4.7654 6.8023-9.0721 8.2548-10.636-1.6391-0.542-5.326-2.4264-8.2707-8.5843-3.5559-7.5045-7.9175-15.522-14.589-15.522-3.4408 0-5.8776 1.5551-7.4452 3.0393 1.5636-1.4842 4.0044-3.0435 7.4452-3.0435 6.6753 0 11.037 8.0173 14.589 15.522 2.9527 6.1537 6.6356 8.0423 8.2826 8.5801-1.4565 1.5676-5.3299 5.8744-8.2588 10.636z"/><path d="m229.21 134.29c1.3851-0.49612 2.2145-0.81299 2.5122-1.6093 0.28176-0.77547-0.0874-1.726-0.80962-3.0977l-0.43258-0.85468c-1.7383-3.3562-3.5123-6.8082-7.7071-10.164-4.7783-3.8106-7.8937-5.0822-10.668-4.6027-0.21033 0.0417-0.36511 0.20011-0.4048 0.41691-0.0556 0.20011 0.0397 0.41691 0.21034 0.53365 2.286 1.5092 8.4255 5.7368 9.4097 7.1251 0.17065 0.25848 0.35717 0.59618 0.30161 0.83382-0.17065 0.53783-1.6629 1.0131-3.2305 1.5301l-0.23018 0.0834c-1.2422 0.4169-3.925 0.65455-7.1833 0.65455-5.0839 0-10.676-0.59619-15.287-1.6301-2.4368-0.69625-3.6472-1.1507-4.3655-1.43-0.56751-0.19595-0.82945-0.31685-1.1708-0.31685-0.2262 0-0.4167 0.0583-0.62308 0.1209-0.69848 0.27516-1.1708 1.2716-1.6827 2.3014-0.30162 0.65456-0.62308 1.33-0.98423 1.7469-0.43259 0.53365-0.77389 1.0506-0.67864 1.6677 0.13097 0.73377 0.82945 1.3883 2.663 2.5182 3.798 2.3014 10.243 5.299 19.268 6.5122 2.6431 0.35855 5.1394 0.53782 7.4095 0.53782 4.5679 0 8.3501-0.69625 11.898-2.1846 0.67469-0.27517 1.274-0.49196 1.7859-0.69209zm-18.244-8.1173c-5.1553 0-10.803-0.59619-15.51-1.6677-2.5122-0.69624-3.7424-1.1715-4.4767-1.4509-0.45242-0.15842-0.67864-0.25849-0.82548-0.25849 0.15082 0 0.37702 0.10007 0.82945 0.25849 0.73818 0.27934 1.9645 0.75462 4.4766 1.4509 4.7068 1.0715 10.35 1.6677 15.506 1.6677zm2.7781-11.257c2.1828 0.1751 4.7545 1.5509 8.4215 4.486 4.0282 3.1978 5.7585 6.5706 7.4412 9.8267l0.43259 0.85467c0.43259 0.81299 0.90883 1.8052 0.75007 2.2222 0.14685-0.41691-0.32543-1.4092-0.75404-2.2222l-0.42862-0.85467c-1.6827-3.2561-3.417-6.629-7.4492-9.8267-3.6551-2.9351-6.2229-4.3026-8.4136-4.486zm1.7899 21.221c4.437 0 8.1-0.67541 11.517-2.1054 0.69848-0.29602 1.3017-0.51698 1.8335-0.71293 0.2024-0.0751 0.38099-0.13758 0.55957-0.20429-0.17462 0.0668-0.35321 0.13341-0.55164 0.20429-0.5318 0.20013-1.135 0.41691-1.8335 0.71293-3.425 1.43-7.088 2.1054-11.525 2.1054z" fill="#1a1a1a"/><path d="m253.86 183.76c8.1953 0 10.374-7.1459 10.374-10.919h-4.1631c0 0.6754-0.17065 6.5497-6.211 6.5497-6.2348 0-7.1952-5.1823-7.2746-5.7784l-2.0637 0.31685-2.0637 0.29601c0.44053 3.302 3.3892 9.5349 11.402 9.5349z"/><path d="m241.73 16.015c-17.351-0.32102-34.031 4.0858-48.053 13.375-14.755 9.785-24.034 23.443-25.808 37.831 4.4211 0.47528 13.319 1.7094 24.792 4.3484h-4e-3c4.5163 1.034 9.4652 2.3431 14.656 3.8731h0.0119c32.992 9.7517 77.659 30.335 105.8 73.602 3.9528 6.0536 7.4095 12.387 10.493 18.974h4e-3c1.2978 2.7391 2.2383 5.7201 3.3813 8.5551 15.303 38.052 17.347 84.221 5.9093 138.03 0 4e-3 -4e-3 9e-3 -4e-3 9e-3 -0.56752 2.6933-0.97629 5.3115-1.6192 8.059 14.807-15.897 26.773-34.558 35.329-55.162-0.0715-3.3728-0.2778-6.5872-0.41274-9.8851-2.3018-58.931-13.549-105.86-33.75-140.06-1.1866-2.022-2.3614-4.1066-3.6035-6.0328h-8e-3c-7.5716-11.653-16.192-21.834-25.998-30.252-3.798-3.2561-7.6556-6.0328-11.525-8.6343h-8e-3c-2.1907-1.4675-4.3576-2.8767-6.5443-4.1441l4e-3 -0.0038c-39.17-22.647-78.075-15.284-78.488-15.184-1.5319 0.29601-2.9844-0.65456-3.4408-2.1638-0.47226-1.5468 0.24606-3.1977 1.643-3.8481 1.135-0.53782 28.344-13.041 64.868-9.7683 10.997 0.95474 23.594 3.7522 36.825 8.9929h-4e-3c4.9092 1.9678 9.878 4.3484 14.946 7.1209-15.422-14.213-33.154-25.586-52.605-33.507-8.9374-2.6974-17.926-3.9899-26.788-4.1233"/></g></svg>
