<?xml version="1.0" standalone="no"?>
<!DOCTYPE svg PUBLIC "-//W3C//DTD SVG 20010904//EN"
 "http://www.w3.org/TR/2001/REC-SVG-20010904/DTD/svg10.dtd">
<svg version="1.0" xmlns="http://www.w3.org/2000/svg"
 width="301.000000pt" height="293.000000pt" viewBox="0 0 301.000000 293.000000"
 preserveAspectRatio="xMidYMid meet">

<g transform="translate(0.000000,293.000000) scale(0.100000,-0.100000)"
fill="#000000" stroke="none">
<path d="M1518 2652 c-14 -9 -36 -30 -48 -45 -19 -24 -28 -27 -85 -27 -42 0
-84 8 -129 25 -37 14 -75 25 -85 25 -29 0 -78 -46 -91 -86 -19 -56 -88 -84
-206 -84 -119 0 -134 -12 -149 -120 -8 -59 -58 -102 -157 -136 -39 -13 -82
-34 -95 -46 -25 -23 -30 -69 -14 -126 8 -26 5 -40 -15 -77 -14 -24 -44 -59
-67 -76 -117 -90 -128 -117 -81 -199 37 -64 28 -122 -31 -212 -70 -106 -69
-131 7 -198 36 -32 40 -41 45 -95 4 -40 0 -78 -11 -114 -32 -109 -13 -156 74
-182 56 -17 88 -77 97 -186 3 -43 10 -88 14 -101 11 -29 65 -52 122 -52 39 0
49 -5 84 -43 21 -23 49 -69 62 -102 33 -83 55 -105 105 -105 22 0 54 5 71 11
52 19 115 -11 182 -87 83 -94 116 -101 197 -39 50 38 96 34 204 -20 50 -25 99
-45 110 -45 26 0 66 32 92 75 28 45 101 64 186 46 96 -19 129 -15 157 18 13
16 29 49 35 73 10 39 18 48 60 71 30 16 80 31 128 38 105 16 124 34 124 122 0
86 33 131 134 183 107 55 125 98 79 187 -22 44 5 112 78 192 32 36 61 76 65
89 7 28 -14 71 -50 105 -40 37 -36 110 9 211 19 43 35 86 35 97 0 29 -26 60
-75 88 -62 37 -79 90 -69 218 l6 93 -31 26 c-18 16 -50 30 -77 34 -62 9 -106
66 -129 169 -9 40 -25 86 -37 100 -20 25 -25 27 -92 23 -89 -4 -127 17 -182
100 -81 120 -106 132 -192 91 -65 -32 -125 -16 -216 56 -74 60 -103 67 -148
37z m163 -217 c405 -71 739 -380 846 -784 23 -84 26 -116 26 -261 1 -148 -2
-175 -26 -265 -68 -252 -229 -479 -443 -621 -424 -282 -978 -227 -1338 132
-505 506 -384 1343 245 1688 88 49 213 93 307 110 103 19 280 19 383 1z"/>
<path d="M1395 2389 c-321 -34 -621 -236 -774 -521 -91 -168 -115 -271 -115
-478 0 -207 24 -310 115 -478 131 -244 367 -426 644 -498 114 -29 302 -36 413
-15 387 73 698 364 799 746 22 86 26 121 26 245 0 124 -4 159 -26 245 -128
486 -588 807 -1082 754z m340 -88 c109 -28 269 -109 359 -182 172 -138 301
-357 335 -569 14 -83 14 -237 0 -320 -48 -303 -262 -573 -556 -703 -124 -55
-205 -71 -368 -71 -155 0 -206 8 -335 55 -392 143 -651 566 -601 982 25 205
110 390 248 537 148 157 340 259 558 293 71 12 281 -1 360 -22z"/>
<path d="M1224 2059 c2 -8 52 -159 111 -337 l107 -323 41 -20 c23 -12 43 -23
45 -24 2 -1 41 -123 87 -270 86 -271 107 -321 149 -348 141 -93 301 38 252
205 -19 68 -57 103 -161 154 -59 28 -99 57 -150 109 -69 69 -74 77 -264 458
-107 213 -200 392 -208 399 -10 8 -12 8 -9 -3z m280 -595 c21 -8 21 -43 0 -51
-8 -3 -23 1 -31 10 -13 13 -14 19 -3 31 14 18 13 18 34 10z m413 -466 c53 -49
68 -120 38 -178 -59 -114 -215 -52 -215 87 0 44 30 100 63 113 33 14 87 4 114
-22z"/>
<path d="M1773 2048 c-5 -7 -65 -120 -133 -252 l-122 -239 28 -58 c15 -33 31
-56 34 -52 11 12 212 604 207 609 -2 3 -9 -1 -14 -8z"/>
<path d="M2005 1550 c-10 -20 -23 -30 -38 -30 -42 0 -49 -14 -22 -40 21 -19
24 -30 19 -57 -7 -36 -1 -39 36 -19 21 12 29 12 52 0 38 -19 40 -18 33 19 -5
26 -2 37 19 56 28 27 21 41 -21 41 -15 0 -28 10 -38 30 -9 17 -18 30 -20 30
-2 0 -11 -13 -20 -30z"/>
<path d="M996 1543 c-12 -24 -25 -34 -52 -39 l-35 -6 24 -27 c20 -20 24 -33
20 -60 -5 -30 -4 -33 13 -26 40 16 53 16 83 0 l32 -16 -7 36 c-5 31 -2 41 20
64 l27 28 -39 6 c-31 5 -41 13 -54 39 l-15 33 -17 -32z"/>
<path d="M1396 1321 c-54 -87 -142 -164 -250 -216 -51 -25 -104 -58 -119 -73
-75 -78 -76 -201 -2 -275 64 -63 161 -58 230 13 32 33 48 70 131 310 52 151
93 274 92 275 -2 1 -13 7 -24 13 -20 10 -25 6 -58 -47z m-201 -297 c37 -17 65
-65 65 -110 0 -41 -36 -107 -69 -127 -56 -33 -128 -13 -151 43 -20 49 -8 125
26 162 47 49 77 57 129 32z"/>
</g>
</svg>
