<?xml version="1.0" encoding="UTF-8"?>
<svg width="390" height="390" enable-background="new 0 0 100 100" version="1.1" viewBox="0 0 390 390" xml:space="preserve" xmlns="http://www.w3.org/2000/svg"><g transform="matrix(5.6949 0 0 5.4396 -4.3228 4.6132)"><path d="m59.256 20.973c-2.292 0-4.1572 1.8643-4.1572 4.1553v5.4531c0 1.4014 1.1406 2.542 2.543 2.542h0.8643v2.3467c0 1.1621-0.9463 2.1074-2.1084 2.1074h-1.5648c-0.3763-2.4418-2.4511-4.1143-4.7965-4.1143h-11.385v-4.1064h8.9429c2.7461 0 4.9805-2.2354 4.9805-4.9834v-18.284c0-0.957-0.4316-1.8447-1.1846-2.4355-0.7461-0.584-1.6992-0.79-2.6123-0.5645-9.1426 2.248-18.413 2.248-27.555 0-0.9165-0.2256-1.8691-0.0195-2.6133 0.5654-0.7529 0.5898-1.1851 1.4775-1.1851 2.4346v18.284c0 2.748 2.2344 4.9834 4.9805 4.9834h8.9434v4.1064h-11.385c-2.4015 0-4.4185 1.7041-4.7934 4.1143h-1.5674c-1.1626 0-2.1084-0.9453-2.1084-2.1074v-2.3467h0.8638c1.4023 0 2.5435-1.1406 2.5435-2.542v-5.4531c0-2.291-1.8647-4.1553-4.1572-4.1553s-4.1577 1.8643-4.1577 4.1553v5.4531c0 1.4258 1.1172 2.542 2.5435 2.542h0.8643v2.3467c0 1.9893 1.6187 3.6074 3.6084 3.6074h1.5592c0.3727 2.3627 2.3917 4.1143 4.8016 4.1143h11.563v7.8314c-1.0978 0.1364-1.9531 1.0649-1.9531 2.1999v1.9453c0 1.5957-0.959 3.0049-2.4429 3.5898l-10.695 4.2148c-0.9453 0.3721-1.4731 1.3301-1.2837 2.3301 0.1924 1.0156 1.0146 1.6973 2.0464 1.6973h35.605c1.0322 0 1.8545-0.6816 2.0459-1.6973 0.1895-1-0.3379-1.958-1.2822-2.3301l-10.694-4.2139c-1.4844-0.5859-2.4438-1.9951-2.4438-3.5908v-1.9453c0-1.135-0.8553-2.0635-1.9531-2.1999v-7.8314h11.561c2.4012 0 4.4185-1.7041 4.793-4.1143h1.5684c1.9893 0 3.6084-1.6182 3.6084-3.6074v-2.3467h0.8643c1.4258 0 2.543-1.1162 2.543-2.542v-5.4531c-5e-4 -2.2909-1.8658-4.1552-4.1578-4.1552zm-40.332 3.4004v-18.284c0-0.4932 0.2227-0.9502 0.6104-1.2549 0.2793-0.2188 0.6152-0.333 0.9585-0.333 0.1235 0 0.248 0.0146 0.3711 0.0449 9.3799 2.3047 18.892 2.3047 28.27 0 0.4658-0.1152 0.9502-0.0088 1.3291 0.2881 0.3877 0.3047 0.6104 0.7617 0.6104 1.2549v18.284c0 1.9209-1.5615 3.4834-3.4805 3.4834h-25.189c-1.919 0-3.4805-1.5625-3.4805-3.4834zm-10.838 6.208v-5.4531c0-1.4639 1.1924-2.6553 2.6577-2.6553s2.6572 1.1914 2.6572 2.6553v5.4531c0 0.584-0.4585 1.042-1.0435 1.042h-3.228c-0.5946 0-1.0434-0.4482-1.0434-1.042zm24.762-1.0898h4.3027v3.9717h-4.3027zm6.0801 23.731v1.9453c0 2.2158 1.332 4.1729 3.3931 4.9863l10.694 4.2148h1e-3c0.417 0.1631 0.3799 0.543 0.3584 0.6553-0.0205 0.1113-0.125 0.4756-0.5723 0.4756h-35.605c-0.4478 0-0.5513-0.3643-0.5728-0.4756-0.021-0.1123-0.0581-0.4922 0.3594-0.6553l10.695-4.2158c2.0615-0.8125 3.3931-2.7695 3.3931-4.9854v-1.9453c0-0.4014 0.3257-0.7275 0.7261-0.7275h6.4033c0.4004 1e-4 0.7261 0.3263 0.7261 0.7276zm-1.9531-2.2275h-3.9492v-7.8037h3.9492zm13.061-9.3037h-30.073c-1.8582 0-3.3667-1.507-3.3667-3.3643 0-1.8444 1.4683-3.3643 3.3667-3.3643h30.073c1.8532 0 3.3662 1.4943 3.3662 3.3643 0 1.8435-1.4675 3.3643-3.3662 3.3643zm11.877-11.11c0 0.5938-0.4482 1.042-1.043 1.042h-3.2285c-0.585 0-1.043-0.458-1.043-1.042v-5.4531c0-1.4639 1.1924-2.6553 2.6572-2.6553s2.6572 1.1914 2.6572 2.6553v5.4531z"/></g></svg>
