<?xml version="1.0" encoding="UTF-8" standalone="no"?>
<svg
   version="1.1"
   x="0px"
   y="0px"
   viewBox="0 0 400 400"
   enable-background="new 0 0 100 100"
   xml:space="preserve"
   id="svg8"
   sodipodi:docname="hair-styling.svg"
   width="400"
   height="400"
   inkscape:version="1.1.2 (0a00cf5339, 2022-02-04)"
   xmlns:inkscape="http://www.inkscape.org/namespaces/inkscape"
   xmlns:sodipodi="http://sodipodi.sourceforge.net/DTD/sodipodi-0.dtd"
   xmlns="http://www.w3.org/2000/svg"
   xmlns:svg="http://www.w3.org/2000/svg"><defs
     id="defs12" /><sodipodi:namedview
     id="namedview10"
     pagecolor="#ffffff"
     bordercolor="#666666"
     borderopacity="1.0"
     inkscape:pageshadow="2"
     inkscape:pageopacity="0.0"
     inkscape:pagecheckerboard="0"
     showgrid="false"
     width="400px"
     inkscape:zoom="0.94"
     inkscape:cx="233.51064"
     inkscape:cy="182.44681"
     inkscape:window-width="1366"
     inkscape:window-height="658"
     inkscape:window-x="0"
     inkscape:window-y="0"
     inkscape:window-maximized="1"
     inkscape:current-layer="svg8" /><g
     id="g202"
     transform="translate(4.2553223,-14.893624)"><path
       d="m 194.70205,280.46305 v -30.71663 c 0,-1.10995 0.90083,-2.01078 2.01078,-2.01078 1.10995,0 2.01077,0.90083 2.01077,2.01078 v 30.71663 c 0,1.10995 -0.90082,2.01078 -2.01077,2.01078 -1.10995,0 -2.01078,-0.90083 -2.01078,-2.01078 z m 72.41613,-31.19519 c 0,1.10995 -0.90083,2.01078 -2.01078,2.01078 -2.69845,0 -4.99476,-0.38205 -7.08598,-0.93703 l -0.0522,0.0522 c -0.36194,0.37802 -9.05252,9.30186 -20.06756,9.30186 -11.01101,0 -19.70159,-8.92384 -20.06756,-9.30186 l -1.21853,-1.26679 1.08984,-1.37537 c 0.36597,-0.45846 9.06861,-11.27242 20.19223,-11.27242 8.09942,0 14.89584,5.71463 18.14526,9.00829 2.75074,1.00538 5.45725,1.76546 9.06055,1.76546 1.118,0.004 2.0148,0.90485 2.0148,2.0148 z m -24.24594,-3.58321 c -0.92094,-0.13271 -1.96252,-0.18901 -3.00813,-0.24933 0.27347,0.46248 0.47052,0.96919 0.47052,1.54427 0,1.71319 -1.38744,3.10464 -3.10463,3.10464 -1.71721,0 -3.10465,-1.38744 -3.10465,-3.10464 0,-0.53084 0.16891,-1.00941 0.40618,-1.44776 -1.0255,0.12467 -2.00273,0.30565 -2.95183,0.51476 -0.0523,0.31368 -0.16085,0.63541 -0.16085,0.94507 0,3.19714 2.60194,5.79907 5.8031,5.79907 3.19713,0 5.79908,-2.60193 5.79908,-5.79907 0.008,-0.44639 -0.0522,-0.8767 -0.14879,-1.30701 z m -20.19625,3.64756 c 1.7172,1.41558 4.45588,3.38615 7.80985,4.76553 -1.8298,-1.73731 -2.98801,-4.15829 -3.05638,-6.85675 -1.96653,0.70378 -3.56712,1.4558 -4.75347,2.09122 z m 15.22962,-8.83134 c -2.21185,0 -4.32317,0.59519 -6.28971,1.45178 1.97057,-0.38205 4.05373,-0.65954 6.28971,-0.65954 2.13545,0 4.02156,0.16891 5.75484,0.42629 -1.81372,-0.72388 -3.74406,-1.21853 -5.75484,-1.21853 z m 15.76851,8.39298 c -0.4303,-0.16086 -0.86864,-0.32173 -1.29091,-0.4866 -1.69308,-0.65552 -3.44648,-1.29897 -5.37682,-1.84188 0.004,0.14478 0.0402,0.28151 0.0402,0.42629 0,3.2655 -1.62068,6.14493 -4.08187,7.93051 4.78564,-1.3794 8.71873,-4.3272 10.70939,-6.02832 z m -77.20178,1.50004 c -0.36595,0.37803 -9.05654,9.30186 -20.06755,9.30186 -11.01101,0 -19.7016,-8.92383 -20.06756,-9.30186 l -0.0523,-0.0522 c -2.09121,0.55498 -4.38751,0.93703 -7.08598,0.93703 -1.10995,0 -2.01078,-0.90083 -2.01078,-2.01078 0,-1.10995 0.90083,-2.01078 2.01078,-2.01078 3.60332,0 6.3058,-0.76007 9.06057,-1.76546 3.24942,-3.29365 10.04584,-9.0123 18.14525,-9.0123 11.12764,0 19.83029,10.80993 20.19222,11.27241 l 1.08985,1.37537 z m -25.18699,-3.40223 c 0,3.19714 2.60195,5.79907 5.79908,5.79907 3.19713,0 5.79908,-2.60193 5.79908,-5.79907 0,-0.31368 -0.10858,-0.62737 -0.15684,-0.94105 -0.94909,-0.20912 -1.92633,-0.39411 -2.95182,-0.51476 0.23728,0.43835 0.40216,0.9129 0.40216,1.44374 0,1.71319 -1.38744,3.10464 -3.10464,3.10464 -1.71721,0 -3.10464,-1.38744 -3.10464,-3.10464 0,-0.59921 0.21314,-1.13006 0.51074,-1.60459 -1.08181,0.0563 -2.08719,0.15683 -3.04031,0.29356 -0.0925,0.43433 -0.15281,0.87269 -0.15281,1.3231 z m 12.53921,7.10608 c 3.34995,-1.37536 6.08461,-3.34593 7.80182,-4.75749 -1.18637,-0.63541 -2.79096,-1.38342 -4.74946,-2.08719 -0.0683,2.69042 -1.22255,5.11139 -3.05236,6.84468 z m -7.41977,-13.59687 c -2.01078,0 -3.9371,0.49465 -5.75082,1.21853 1.73329,-0.25738 3.61537,-0.42629 5.75082,-0.42629 2.23599,0 4.31513,0.27749 6.28568,0.65954 -1.96252,-0.85257 -4.07383,-1.45178 -6.28568,-1.45178 z m -15.76852,8.39298 c 1.98665,1.70112 5.92778,4.65294 10.7094,6.03234 -2.46119,-1.78558 -4.08187,-4.66501 -4.08187,-7.93453 0,-0.15282 0.0362,-0.2976 0.0442,-0.44639 -1.93839,0.54692 -3.67972,1.20646 -5.38084,1.866 -0.42629,0.16085 -0.86464,0.3177 -1.29092,0.48258 z m 74.28214,-16.88651 c 0.42226,0 0.85257,-0.1327 1.21852,-0.41019 0.16892,-0.12869 17.05945,-12.66388 44.11646,-4.78164 1.0818,0.30565 2.17968,-0.30563 2.49337,-1.37134 0.30966,-1.06571 -0.30162,-2.17969 -1.37135,-2.49336 -29.10399,-8.4694 -46.94361,4.88216 -47.68358,5.45322 -0.88071,0.67563 -1.0456,1.93035 -0.36998,2.81509 0.39009,0.51878 0.9893,0.78822 1.59656,0.78822 z m -80.11339,-5.19183 c 27.02886,-7.8943 43.94755,4.65295 44.11645,4.78164 0.36597,0.27347 0.79225,0.41019 1.21854,0.41019 0.60322,0 1.20646,-0.26944 1.59655,-0.78419 0.67563,-0.88475 0.51074,-2.13948 -0.36998,-2.81509 -0.74399,-0.57509 -18.58763,-13.93067 -47.68357,-5.45323 -1.06974,0.31368 -1.68101,1.42765 -1.37136,2.49337 0.31368,1.06168 1.41157,1.65285 2.49337,1.36731 z m 53.29766,58.58199 h 1.95448 c 1.10995,0 2.01077,-0.90083 2.01077,-2.01078 0,-1.10995 -0.90082,-2.01077 -2.01077,-2.01077 h -1.95448 c -1.10995,0 -2.01078,0.90082 -2.01078,2.01077 0,1.10995 0.90083,2.01078 2.01078,2.01078 z m 14.6264,0 h 1.95447 c 1.10995,0 2.01078,-0.90083 2.01078,-2.01078 0,-1.10995 -0.90083,-2.01077 -2.01078,-2.01077 h -1.95447 c -1.10995,0 -2.01078,0.90082 -2.01078,2.01077 0,1.10995 0.89681,2.01078 2.01078,2.01078 z m 15.28994,16.65326 3.00411,0.81235 -1.9786,2.40489 c -0.26141,0.32172 -6.5109,7.88627 -11.07939,11.18395 -3.63549,2.62205 -7.50824,3.9371 -11.42926,3.9371 -3.90493,0 -7.8541,-1.29896 -11.66653,-3.90493 -4.68511,-3.20518 -10.87831,-10.91047 -11.14373,-11.23622 l -1.91023,-2.3888 2.94377,-0.80834 c 0.48661,-0.13271 11.87967,-3.25344 15.43071,-3.66766 2.43706,-0.27346 4.17035,0.41825 5.31649,0.88073 0.28152,0.1126 0.66356,0.26542 0.79225,0.28552 0.1689,-0.0201 0.55095,-0.17292 0.83246,-0.28552 1.14212,-0.46248 2.88346,-1.15017 5.3165,-0.88073 3.55505,0.41422 15.08083,3.53495 15.57145,3.66766 z m -34.99959,1.99871 c 0.24532,0.0764 0.53085,0.15685 0.77214,0.22924 4.4398,1.35526 7.65303,2.3325 12.44672,2.3325 5.19183,0 9.26163,-1.04963 13.87034,-2.45717 -3.27757,-0.81638 -6.63959,-1.60059 -8.11148,-1.76949 -1.40352,-0.16891 -2.40087,0.23325 -3.35397,0.61127 -1.52418,0.6153 -3.32181,0.52683 -4.62479,0 -0.94908,-0.38607 -1.94241,-0.78018 -3.35397,-0.61127 -1.4156,0.16086 -4.5323,0.88474 -7.64499,1.66492 z m 28.18708,3.96928 c -4.89825,1.49602 -9.23751,2.61401 -14.97224,2.61401 -5.39291,0 -9.02035,-1.10593 -13.62102,-2.50946 -0.43834,-0.13271 -0.94908,-0.2815 -1.40754,-0.41823 1.89416,2.03089 4.08188,4.19448 5.9318,5.45725 6.3058,4.3111 12.52312,4.31914 18.47099,0.0322 1.72526,-1.2507 3.7682,-3.24942 5.59801,-5.17574 z M 336.12404,176.54207 c 2.83922,4.54837 4.50816,9.89704 4.50816,15.63982 0,14.1036 -9.65575,25.86664 -23.01937,28.87878 7.03771,7.95464 7.70931,19.75388 1.21852,28.31175 -0.32976,0.51878 -0.80029,1.08179 -1.29494,1.65688 l -0.26542,0.30564 c -1.35526,1.41156 -2.81509,2.44912 -4.33121,3.3218 -2.86335,12.35823 -13.89849,21.25793 -26.67096,21.25793 -0.77616,0 -1.51612,-0.0764 -2.26413,-0.13672 -2.98399,3.44244 -6.4747,5.6543 -9.91313,6.21732 -10.23084,22.07029 -25.62535,39.68068 -41.19681,51.19438 -0.62333,4.09395 -4.37544,33.13359 11.65849,44.96903 8.79916,6.49481 25.08645,5.62615 38.16053,4.94651 3.92504,-0.20912 7.5726,-0.37802 10.80994,-0.38204 18.46295,0.13271 26.09587,11.55795 26.40955,12.04455 0.60324,0.92898 0.34184,2.17566 -0.58715,2.7789 -0.33781,0.22118 -0.71986,0.32575 -1.09386,0.32575 -0.65551,0 -1.29896,-0.32174 -1.68503,-0.91692 -0.26944,-0.40618 -6.86479,-10.10215 -23.07166,-10.21475 -3.04432,-0.008 -6.70393,0.1689 -10.56462,0.374 -13.70948,0.72388 -30.79707,1.62873 -40.76248,-5.72669 -15.3744,-11.34481 -14.71889,-35.25295 -13.71752,-45.07761 -11.63436,7.72542 -23.09579,11.96815 -32.29308,11.96815 -9.78444,0 -21.22175,-4.17035 -32.51829,-11.91184 0.99734,9.85683 1.62068,33.6966 -13.72557,45.0213 -9.95737,7.3514 -27.03692,6.45057 -40.76247,5.72669 -3.8607,-0.20108 -7.52835,-0.34586 -10.564637,-0.374 -16.327507,0.11662 -23.007309,10.11421 -23.071653,10.21475 -0.38607,0.59117 -1.029519,0.91692 -1.685032,0.91692 -0.378027,0 -0.756053,-0.10461 -1.093864,-0.32575 -0.928979,-0.60324 -1.194401,-1.84992 -0.587146,-2.7789 0.313682,-0.4866 7.950614,-11.91184 26.409549,-12.04455 3.221263,0.004 6.884903,0.17292 10.809933,0.38204 13.08212,0.68769 29.3654,1.5483 38.16054,-4.94651 16.25512,-11.99629 12.19335,-41.57885 11.64239,-45.09369 -14.77116,-11.41317 -28.85062,-28.86672 -38.24498,-50.98929 -2.79498,-0.29357 -5.65028,-1.67297 -8.26026,-3.98134 -2.60195,1.32711 -5.45725,2.03892 -8.34474,2.03892 -2.35261,0 -4.717284,-0.44639 -6.953259,-1.35526 -5.610072,-2.27218 -9.993568,-6.59937 -12.350199,-12.17324 -2.360652,-5.57789 -2.408911,-11.72686 -0.128689,-17.32485 0.398134,-0.98126 0.90485,-1.89416 1.399501,-2.80705 -19.086299,-6.41037 -32.216674,-24.45106 -32.216674,-44.78404 0,-5.97201 1.142121,-11.76305 3.317782,-17.26453 -4.08992,-5.29236 -6.402314,-11.70273 -6.535025,-18.50317 -0.160863,-8.37288 2.943777,-16.30338 8.754924,-22.33571 0.301616,-0.31771 0.631384,-0.58313 0.945065,-0.87269 -0.615298,-3.25342 -0.977237,-6.60339 -0.977237,-10.00964 0,-21.39467 12.535185,-40.649875 32.003531,-49.416863 1.636773,-11.79522 9.8528,-21.680201 21.31826,-25.335794 4.56045,-1.451782 9.24556,-1.55232 13.60089,-0.510738 1.65689,-9.547171 9.88096,-16.73771 19.82225,-16.73771 4.13014,0 8.11147,1.335156 11.46546,3.667658 8.48949,-7.765622 19.75788,-12.454755 32.03168,-12.454755 10.37159,0 20.14396,3.301696 28.38011,9.502933 4.66098,-2.811066 9.93726,-4.52827 15.52319,-4.934447 9.30186,-0.675621 18.39459,2.328481 25.4846,8.469394 4.13014,3.567119 7.00152,8.075282 8.54581,12.945384 29.30908,5.32856 51.98663,29.25681 55.72266,58.835338 8.92382,4.86609 14.2001,14.79129 12.62767,25.21515 -0.0844,0.88876 -0.29357,1.84188 -0.55095,2.80705 -0.71583,2.71052 -1.93839,5.17574 -3.64353,7.32325 -0.11261,0.14075 -0.24532,0.25335 -0.35792,0.39009 5.48943,2.32445 9.08871,7.5203 9.08871,13.5446 -0.004,4.0296 -1.67698,7.73746 -4.5162,10.52843 z m -19.17075,-58.19592 c -2.425,-0.64747 -4.88217,-0.92898 -7.3152,-0.88877 -0.0522,0.004 -0.10859,0.0161 -0.16087,0.0161 -0.0362,0 -0.0723,-0.0161 -0.10858,-0.0201 -4.35132,0.11663 -8.62222,1.31103 -12.48693,3.55104 -6.11679,3.54298 -10.47615,9.25761 -12.28987,16.08621 -2.07915,7.7978 -1.26679,16.0822 2.28022,23.321 1.492,3.09257 3.46658,5.90364 5.85538,8.39299 5.2039,-4.05776 11.59013,-6.29373 18.20961,-6.29373 9.17718,0 17.3892,4.18241 22.84242,10.73754 1.79361,-1.98262 2.83117,-4.5162 2.83117,-7.23477 0,-5.04706 -3.45451,-9.29784 -8.30048,-10.46007 -4.89826,3.75211 -11.3247,5.16368 -17.5018,3.54701 -2.37272,-0.62334 -4.4961,-1.72122 -6.31384,-3.2655 -2.93172,-2.40489 -4.96261,-5.81919 -5.69453,-9.59141 -0.49063,-2.46119 -0.41019,-4.96661 0.24532,-7.42781 1.9223,-7.275 9.44663,-11.62632 16.72564,-9.70803 4.96662,1.32711 8.42515,5.84332 8.40908,10.98287 -0.004,1.10995 -0.12065,2.0349 -0.36999,2.9116 -1.35527,5.02695 -6.55112,8.04311 -11.57403,6.69991 -3.30573,-0.88475 -5.68246,-3.74808 -5.91169,-7.12218 -0.0966,-0.80832 -0.0281,-1.70915 0.22118,-2.64618 0.97322,-3.58723 4.70523,-5.73875 8.29246,-4.82184 1.07777,0.27749 1.72524,1.37135 1.44775,2.44913 -0.27748,1.07375 -1.38743,1.72122 -2.4451,1.44775 -1.48396,-0.37802 -3.00813,0.5027 -3.41029,1.97057 -0.1126,0.43432 -0.14879,0.82843 -0.10058,1.23059 0.12064,1.75742 1.30298,3.16898 2.94377,3.60734 2.87944,0.76812 5.87147,-0.96919 6.6597,-3.88081 0.15281,-0.54692 0.22118,-1.11396 0.2252,-1.85795 0.008,-3.31376 -2.2199,-6.22537 -5.41703,-7.08196 -5.12748,-1.34319 -10.45202,1.71319 -11.8113,6.85274 -0.49466,1.86197 -0.559,3.75613 -0.185,5.62212 0.55498,2.86335 2.09121,5.44519 4.32318,7.275 1.38341,1.17429 2.97192,1.99469 4.76152,2.46119 5.08726,1.33515 10.38767,0.1045 14.34891,-3.09257 0.14476,-0.15685 0.30563,-0.28554 0.49062,-0.39814 0.74399,-0.64747 1.45179,-1.34321 2.07915,-2.13947 1.35928,-1.71318 2.33652,-3.68375 2.9116,-5.85538 0.20108,-0.76007 0.36999,-1.51211 0.45041,-2.28425 1.58048,-10.48419 -4.94249,-20.37319 -15.15723,-23.09176 z m -17.9482,60.28712 c -2.73868,-1.46786 -5.2602,-3.28561 -7.54042,-5.43312 -0.14477,-0.0924 -0.29759,-0.17694 -0.41823,-0.31368 -0.0523,-0.0603 -0.0724,-0.13673 -0.11663,-0.20108 -0.31369,-0.30965 -0.64747,-0.59519 -0.95311,-0.91691 -1.31907,-1.35526 -2.51347,-2.81911 -3.60331,-4.35534 -2.11132,2.7427 -3.64353,5.88354 -4.41969,9.24957 -0.65954,2.73869 -0.94909,6.89295 -0.67965,9.55923 0.14076,0.36999 0.29358,0.72791 0.43032,1.0979 0.0442,0.0683 0.0926,0.12868 0.13673,0.19705 l -0.0442,0.0322 c 1.82578,4.97064 3.37408,10.22681 4.70522,15.70819 0.5791,0.7842 1.22657,1.52417 1.91024,2.23197 1.77752,1.83784 3.86471,3.39016 6.19721,4.61674 2.15556,1.14614 4.47599,1.866 6.84067,2.32446 0.81637,0.12064 1.64883,0.18097 2.4451,0.374 2.62608,0.24129 5.28835,0.12467 7.90235,-0.48259 5.07923,-1.17428 9.38632,-4.25882 12.13706,-8.68656 2.7427,-4.41566 3.59527,-9.63161 2.40087,-14.68269 -1.75742,-7.54042 -8.86753,-12.53921 -16.44816,-11.61023 -0.71181,0.0362 -1.23864,0.14478 -1.76144,0.26945 -1.57243,0.35791 -3.01215,1.02549 -4.29905,1.98664 -3.76819,2.78694 -5.51757,7.54846 -4.4599,12.13705 0.30162,1.28691 0.85257,2.44511 1.63276,3.42637 1.2708,1.65286 3.08452,2.80303 5.11943,3.26952 1.30701,0.30565 2.66227,0.30565 4.05775,-0.004 3.62745,-0.83246 5.90365,-4.50414 5.06313,-8.18386 -0.5228,-2.18773 -2.48933,-3.77625 -4.7776,-3.84461 -0.41825,-0.0121 -0.84453,0.0161 -1.29092,0.11261 -0.91691,0.21716 -1.72926,0.80028 -2.24403,1.63677 -0.50671,0.8204 -0.66757,1.78155 -0.44639,2.70651 0.25336,1.03353 1.12202,1.80567 2.1636,1.91425 0.35791,0.0643 0.56301,0.0442 0.80431,-0.012 1.07375,-0.27346 2.16761,0.3901 2.43304,1.46787 0.26542,1.07777 -0.39009,2.17164 -1.46787,2.43707 -0.80029,0.19704 -1.59254,0.2252 -2.34054,0.0884 -2.5738,-0.25335 -4.85,-2.25609 -5.50551,-4.95456 -0.4665,-1.98262 -0.13673,-4.02557 0.93702,-5.75886 1.0818,-1.74937 2.77889,-2.97192 4.78162,-3.44245 0.82443,-0.17694 1.58048,-0.24531 2.33252,-0.20912 4.06578,0.12064 7.59269,2.97997 8.53373,6.95327 1.34319,5.8594 -2.28827,11.69468 -8.09539,13.0218 -1.99066,0.44639 -3.95721,0.44236 -5.84734,0 -2.93171,-0.67161 -5.5618,-2.34457 -7.38357,-4.70925 -1.13006,-1.42363 -1.9384,-3.11268 -2.38077,-4.99075 -1.17429,-5.0752 0.23326,-10.25898 3.55908,-14.02718 z m -13.97088,66.24707 c 0.77214,0.17293 1.44776,0.39411 2.05502,0.66758 -0.89279,-2.90758 -0.94105,-6.02429 -0.0161,-8.93991 0.54291,-1.72123 1.45983,-3.26551 2.57781,-4.69718 -0.012,0.004 -0.0201,0.004 -0.0322,0.008 -0.18901,0.0805 -0.38204,0.15685 -0.59921,0.17695 -0.0442,0.004 -0.0966,0.004 -0.14076,0.008 -0.008,0 -0.0161,0.004 -0.0241,0.004 -0.004,0 -0.008,-0.004 -0.0121,-0.004 h -0.004 c -0.36193,0 -0.6917,-0.12466 -0.9893,-0.2976 -0.0322,-0.0201 -0.0723,-0.0121 -0.1046,-0.0322 -0.50672,-0.33379 -1.04158,-0.61932 -1.55233,-0.94909 -0.1327,4.78566 -0.51878,9.47881 -1.1582,14.05534 z m 5.20389,19.74181 c 4.37143,-1.06168 8.14365,-3.84059 10.4279,-7.74551 -3.05639,-0.53084 -5.94789,-1.87405 -8.44929,-3.88483 0.34586,3.12073 -0.29358,6.99349 -1.97861,11.63034 z m -3.79634,-38.44204 c -0.75204,-6.9412 -1.90622,-14.11565 -3.57919,-21.29413 -0.0201,-0.0683 -0.0362,-0.13271 -0.0482,-0.20108 -1.17832,-5.02291 -2.60999,-10.04182 -4.35535,-14.98029 h -0.004 c -19.18684,-29.58256 -50.13672,-47.24925 -82.79979,-47.24925 -1.49602,0 -2.96791,0.0362 -4.43175,0.14076 -7.29511,3.49473 -15.94949,5.27628 -25.9149,5.27628 -1.24668,0 -2.53358,-0.0643 -3.81645,-0.12064 -0.0805,1.29896 -0.28554,2.57379 -0.71986,3.76819 -1.14213,3.12878 -3.36202,5.41301 -6.24548,6.42243 -1.04158,0.36595 -2.11935,0.54692 -3.2092,0.54692 -1.56037,0 -3.12475,-0.47051 -4.63685,-1.20646 -9.54315,9.515 -19.02597,15.42669 -27.70852,18.98576 -6.68382,13.89849 -10.25496,30.13351 -10.6732,48.29082 9.74825,-5.85136 19.98713,-10.71744 30.62012,-14.48564 -0.27748,-0.36595 -0.45444,-0.80832 -0.43031,-1.30298 0.0442,-0.86865 1.11398,-21.42282 7.12217,-32.42579 0.52683,-0.97724 1.74938,-1.33516 2.72662,-0.80431 0.97321,0.53085 1.33516,1.7534 0.80029,2.72661 -5.47736,10.0378 -6.58731,29.8319 -6.62752,30.63218 2.50944,-0.82844 5.01488,-1.65285 7.56052,-2.36065 -0.0724,-6.03635 0.60725,-27.90155 13.19472,-45.70899 0.64747,-0.9129 1.90219,-1.11397 2.80302,-0.48258 0.90485,0.63942 1.118,1.89415 0.47857,2.80302 -11.20003,15.84895 -12.38639,35.66315 -12.44672,42.37914 13.61297,-3.43843 27.65222,-5.30041 41.8845,-5.30041 21.4188,0 42.37914,3.9733 61.98422,11.61425 0.43432,-6.83262 -0.8767,-15.84492 -1.91828,-19.1225 -0.33781,-1.05766 0.24933,-2.18772 1.30701,-2.52553 1.05766,-0.34183 2.19174,0.25336 2.52553,1.30701 1.37939,4.33523 2.69444,14.554 1.97056,21.90138 8.48951,3.56712 16.70956,7.83801 24.58779,12.77648 z m -176.78352,2.23599 c -0.73595,0.44639 -1.50406,0.8405 -2.23599,1.29896 -0.34182,0.26945 -0.75605,0.45444 -1.22657,0.45444 -0.9692,0 -1.74133,-0.69975 -1.93035,-1.61264 -0.0201,-0.0805 -0.0402,-0.15283 -0.0482,-0.23326 -0.004,-0.0563 -0.0322,-0.10858 -0.0322,-0.16488 0,-0.933 0.0482,-1.84188 0.0643,-2.76684 -0.60726,0.0523 -1.1944,0.17696 -1.81373,0.17696 -12.860926,0 -23.329032,-10.46409 -23.329032,-23.32502 0,-1.47592 0.184991,-2.89954 0.454435,-4.291 -2.199791,-0.45041 -4.375452,-1.06974 -6.486768,-1.90622 -0.430305,2.04296 -0.723879,4.11003 -0.723879,6.19722 0,16.57685 13.496337,30.0571 30.085244,30.0571 2.50543,0 4.93847,-0.36998 7.29913,-0.95713 -0.0281,-0.96919 -0.0603,-1.94643 -0.0764,-2.92769 z M 87.089273,159.15286 c -0.09652,-1.3794 -0.679643,-2.69444 -1.70916,-3.67972 -1.455803,-1.39951 -3.398214,-2.17969 -5.413013,-2.1073 -2.030885,0.0402 -3.921015,0.86866 -5.316495,2.3325 -1.853937,1.92633 -2.847261,4.45991 -2.790959,7.13425 0.0563,2.67432 1.146143,5.16769 3.07649,7.02162 1.459824,1.41962 3.217243,2.44512 5.155632,3.04031 0.329768,-1.2306 0.780182,-2.63815 1.403523,-4.19047 -1.676988,-0.22118 -3.297674,-0.93701 -4.580551,-2.15957 -2.76683,-2.68237 -2.839218,-7.07794 -0.184991,-9.82063 0.77616,-0.79225 2.050993,-0.81638 2.843239,-0.0442 0.796267,0.77214 0.816375,2.04295 0.04826,2.84324 -1.113971,1.15016 -1.081799,2.99606 0.07641,4.11807 1.017453,0.96116 2.43304,1.29896 3.744067,0.99332 0.973216,-1.77753 2.163597,-3.62342 3.647551,-5.48138 z m -3.611355,16.99107 c 6.707953,1.45178 33.161732,4.93847 59.812582,-21.20566 -0.47053,-0.46248 -0.92898,-0.93701 -1.33515,-1.47188 -2.99204,2.4451 -8.97612,6.81251 -13.6009,6.81653 -0.3338,0 -0.65954,-0.0241 -0.97322,-0.0724 -1.71721,-0.25738 -3.09257,-1.18636 -3.97732,-2.68639 -0.88474,-1.492 -0.96919,-3.09258 -0.24531,-4.50012 2.08316,-4.03362 10.93461,-5.62615 15.88111,-6.21732 -0.0402,-0.23728 -0.0523,-0.46651 -0.0844,-0.69976 -2.76282,-0.69573 -17.28465,-3.70788 -35.00362,4.85804 -6.000157,2.89954 -10.263003,6.55916 -13.295256,10.23486 -0.04423,0.0522 -0.07641,0.11662 -0.12869,0.16488 -4.878145,5.98005 -6.522961,11.97619 -7.049784,14.77921 z m -5.94788,-40.34021 c -0.01609,-0.19706 5.593982,0.50671 6.012224,0.59519 0.486609,0.1046 3.398213,0.60725 3.46658,1.00538 -0.977238,-5.61408 -0.132711,-11.4936 2.360652,-16.5889 2.22392,-4.54035 5.787017,-8.5257 10.098123,-11.18395 -1.942411,-2.37674 -3.579178,-5.04706 -4.874119,-7.82595 -10.67321,6.63155 -17.268559,18.23775 -17.268559,30.90164 0,1.01745 0.120646,2.06305 0.205099,3.09659 z m 18.113078,7.0538 c 1.769488,1.6971 3.18508,3.62342 4.210572,5.74279 0.772142,-0.42629 1.516122,-0.86062 2.344572,-1.26278 0.91289,-0.44237 1.80567,-0.81637 2.69846,-1.20244 -0.0563,-0.0281 -0.12065,-0.0362 -0.17293,-0.0683 -1.45983,-0.7641 -2.79096,-1.866 -3.93711,-3.26551 -0.53888,-0.73996 -0.840496,-1.16625 -1.089838,-1.6408 -4.118066,-6.47872 -2.634114,-15.17734 3.534958,-20.09972 1.71317,-1.3794 3.67167,-2.42098 5.74277,-3.10866 -2.37271,-1.46787 -4.58055,-3.26953 -6.63556,-5.29237 -7.242819,4.11405 -11.722834,11.64642 -11.722834,20.04343 0,2.48934 0.426286,4.89021 1.190381,7.16641 1.367329,0.86463 2.666291,1.84992 3.836559,2.98801 z M 144.48088,73.82754 c 0.0643,0.184992 0.14879,0.341832 0.20912,0.530845 0.56704,1.777528 0.80431,3.587227 0.88072,5.400948 3.06041,-0.816376 6.20123,-1.238639 9.37826,-1.238639 16.6975,0 31.21129,11.344806 35.3937,27.274186 1.9022,-0.65552 3.79233,-1.28288 5.64627,-1.87807 -1.97861,-7.355419 -5.83528,-14.059353 -11.39306,-19.420086 -3.29365,-3.23333 -7.0498,-5.855383 -11.17591,-7.801816 -8.99621,-4.351321 -19.45225,-5.288344 -28.9391,-2.867368 z m 64.6103,30.34665 c -9.06459,2.58184 -25.77817,7.68117 -34.31191,12.47084 -13.83013,7.76562 -16.65727,17.30072 -17.20421,20.04343 0.0322,0.0362 0.0683,0.0724 0.10048,0.10859 3.543,-3.75212 11.71882,-11.70273 17.53398,-11.81132 1.71721,0.0161 3.16898,0.57107 4.26688,1.7333 1.46786,1.56438 1.96653,3.45853 1.40352,5.34062 -1.66895,5.56181 -12.47084,9.79651 -18.8812,11.6786 16.046,0.62736 28.65759,-3.22932 37.44067,-11.55393 10.34746,-9.81259 12.67192,-23.34915 13.19472,-28.99943 -0.19303,0.0523 -1.84992,0.49464 -3.54298,0.9893 z m 25.63338,-13.327432 c -12.03249,7.198584 -19.5166,20.160062 -19.65735,34.195272 2.25206,0.56705 4.43576,1.23463 6.59534,1.9384 -0.0241,-0.5228 -0.1126,-0.99333 -0.1126,-1.54026 0,-9.86488 4.29502,-19.15869 11.77109,-25.601214 0.53486,-1.266795 1.17832,-2.489347 2.04295,-3.607335 0.48259,-0.623344 0.98528,-1.210494 1.55634,-1.749381 0.74399,-0.768111 1.56036,-1.43167 2.39684,-2.050989 -1.57242,-0.369983 -3.11268,-0.884742 -4.59261,-1.584493 z m 29.65093,-8.827311 c 16.91063,3.482665 30.47533,16.781949 34.2918,33.676493 2.68639,-1.09788 5.48539,-1.80165 8.33667,-2.09522 -4.41567,-19.30749 -19.70963,-34.83069 -38.99299,-39.547974 -0.77214,2.76683 -1.97458,5.453229 -3.63548,7.966701 z m -7.75758,7.596716 c 1.83785,0.587146 3.59125,1.487975 5.24008,2.642161 14.73095,2.835192 25.67361,14.980296 27.18571,29.683096 1.74536,-1.67297 3.6757,-3.16899 5.81919,-4.41165 0.0241,-0.0121 0.0482,-0.0241 0.0724,-0.0362 -3.31376,-16.46023 -16.76989,-29.341262 -33.3789,-31.874841 -1.46386,1.588514 -3.1328,2.895519 -4.93847,3.997425 z m 21.41477,86.125617 c 1.01746,-4.41969 3.16898,-8.51363 6.15299,-11.98022 -0.29358,-0.53888 -0.66356,-1.02952 -0.92898,-1.58449 -0.3338,-0.67562 -0.61129,-1.37537 -0.90083,-2.06707 -0.54292,0.58713 -1.07376,1.19037 -1.59656,1.84589 -2.54966,3.09258 -4.42774,6.60338 -5.65431,10.44397 0.90887,1.70916 1.72927,3.51082 2.56576,5.29639 0.10857,-0.67562 0.22118,-1.3633 0.36193,-1.95447 z m -75.79022,-40.67401 c -1.31505,1.25071 -2.72661,2.38076 -4.18643,3.44647 27.9297,0.7078 54.43577,13.73362 73.73922,35.77977 -0.1046,-0.19705 -0.21314,-0.39009 -0.3177,-0.58714 -0.18901,-0.21716 -0.32173,-0.46651 -0.40216,-0.74399 -8.38092,-15.46287 -20.75122,-29.00345 -38.86027,-37.6498 -0.57911,-0.2252 -1.09789,-0.48258 -1.62471,-0.73191 -2.35261,-1.06572 -4.78566,-2.06307 -7.3313,-2.95987 -0.0563,-0.0201 -0.10858,-0.0362 -0.16488,-0.0603 -3.35398,-1.1743 -6.86882,-2.20784 -10.56865,-3.06844 -0.0683,-0.0201 -0.14478,-0.0161 -0.20912,-0.0442 -1.27081,-0.29357 -2.57781,-0.55094 -3.89286,-0.8043 -1.70112,2.56575 -3.71995,5.08325 -6.18114,7.42378 z m 23.54219,-6.71599 c 1.72926,0.64747 3.40223,1.37939 5.06716,2.11533 0.28955,0.0121 0.5791,0.0724 0.84855,0.21315 2.46119,1.29092 5.87951,2.27218 9.14903,2.62205 2.63009,0.32172 5.2803,0.21314 7.87421,-0.31368 2.9317,-0.58313 5.70658,-1.68906 8.21201,-3.22126 0.51073,-0.43032 1.0456,-0.82443 1.61264,-1.17832 1.91829,-1.39146 3.69983,-2.97997 5.17172,-4.88217 3.2454,-4.18242 4.66098,-9.37425 3.9934,-14.62237 -0.66758,-5.24813 -3.3419,-9.917151 -7.52835,-13.150483 -0.0442,-0.03617 -0.10048,-0.05627 -0.14477,-0.09244 -0.0241,-0.01608 -0.0482,-0.02813 -0.0723,-0.04421 -6.20125,-4.64087 -14.84759,-4.005465 -20.22441,1.544282 -0.4866,0.462479 -0.84854,0.896802 -1.20646,1.351242 -1.01344,1.307009 -1.73329,2.762799 -2.12741,4.319139 -1.1783,4.61273 0.49466,9.4949 4.2709,12.43868 1.05766,0.82441 2.24,1.38341 3.50277,1.66492 2.0711,0.49062 4.24676,0.24129 6.14896,-0.69975 1.25473,-0.6153 2.32043,-1.48798 3.17703,-2.59793 2.34456,-3.01214 1.78557,-7.37151 -1.23462,-9.72411 -1.83786,-1.41962 -4.41165,-1.41962 -6.25754,0 -0.41422,0.3177 -0.69975,0.59518 -0.92495,0.8968 -1.26278,1.64079 -0.97322,3.97731 0.6354,5.21595 0.86464,0.67161 2.05501,0.72791 2.94779,0.13674 0.30967,-0.18499 0.48662,-0.34183 0.66356,-0.57508 0.54694,-0.71182 0.41423,-1.76145 -0.30966,-2.3325 -0.86866,-0.68769 -1.01745,-1.95046 -0.32976,-2.82313 0.6917,-0.87268 1.95849,-1.01746 2.82715,-0.32977 2.42902,1.9223 2.87943,5.4854 1.00137,7.93854 -0.5027,0.64747 -1.06169,1.14615 -1.72123,1.53222 -2.24403,1.48395 -5.30443,1.35928 -7.54041,-0.36195 -3.36202,-2.5939 -3.97732,-7.45596 -1.3794,-10.83808 0.43433,-0.57911 0.97322,-1.10593 1.67699,-1.64884 3.28964,-2.52955 7.88627,-2.525531 11.16786,0.008 4.77761,3.71993 5.65028,10.60885 1.94643,15.36636 -1.23462,1.59254 -2.77487,2.85128 -4.57653,3.73602 -2.73063,1.35125 -5.8594,1.72123 -8.82328,1.01343 -1.82579,-0.40215 -3.54702,-1.2145 -5.08325,-2.41293 -3.70385,-2.89149 -5.8755,-7.18652 -6.14493,-11.70273 -4.16231,5.22803 -6.4908,11.71479 -6.4908,18.51524 0.0121,1.05767 0.12065,1.98665 0.22521,2.92367 z m 26.38943,13.16657 c -0.17292,-1.91829 0.0121,-3.74809 0.55498,-5.43714 -1.04962,0.3378 -2.11534,0.6354 -3.2092,0.85256 -1.87807,0.38607 -3.78026,0.5791 -5.6905,0.5791 -0.0241,0 -0.0482,-0.004 -0.0724,-0.004 3.14084,2.05904 6.16102,4.27492 9.01231,6.716 -0.0723,-0.26944 -0.18499,-0.5228 -0.24532,-0.80029 -0.12064,-0.39411 -0.20912,-0.92897 -0.28954,-1.48395 z m 27.89753,10.99493 c -2.85128,2.08718 -6.21329,3.40223 -9.75227,3.75211 -0.58312,0.0603 -1.1582,0.0885 -1.73328,0.0885 -1.62471,0 -3.1891,-0.28554 -4.69316,-0.73193 3.12073,3.79634 5.97603,7.90638 8.59004,12.2939 1.31504,-3.06443 3.02421,-5.91973 5.14356,-8.49353 1.01746,-1.28288 2.09926,-2.42097 3.22932,-3.49876 -0.31368,-1.122 -0.57106,-2.26413 -0.78421,-3.41027 z m 5.13151,-26.09185 c 0.008,-0.32575 0.0161,-0.65149 0.0161,-0.98528 0,-11.92793 -7.03773,-22.40006 -17.48573,-27.12137 2.06708,3.04834 3.49473,6.50688 3.9733,10.26703 0.80431,6.31385 -0.90486,12.56335 -4.80173,17.59431 -0.11664,0.1488 -0.24935,0.28553 -0.36597,0.4303 0.87268,0.0804 1.73329,0.2413 2.56576,0.51878 2.47726,0.83247 4.60065,2.51348 5.97603,4.73739 0.90082,1.45581 1.44775,3.06845 1.62873,4.79772 0.26943,2.50945 -0.45846,4.96662 -2.05502,6.92512 -1.58851,1.94643 -3.84461,3.16496 -6.35004,3.4344 -3.60331,0.39411 -6.98945,-1.72524 -8.23212,-5.10737 -0.26944,-0.68367 -0.43031,-1.33516 -0.48661,-2.00675 -0.19303,-1.76145 0.32977,-3.53898 1.4719,-4.9425 1.13809,-1.3995 2.75475,-2.26815 4.55239,-2.44913 1.05767,-0.10058 2.09121,0.69574 2.1998,1.80166 0.1126,1.10593 -0.69574,2.09122 -1.79765,2.19979 -0.72388,0.0723 -1.37537,0.42226 -1.82981,0.98529 -0.45844,0.56703 -0.67159,1.29091 -0.59115,2.03087 0.0281,0.31772 0.0966,0.59117 0.24129,0.9491 0.62735,1.69709 2.28826,2.74671 4.05372,2.54162 1.43972,-0.15684 2.74672,-0.85659 3.65559,-1.97861 0.9129,-1.11799 1.32712,-2.52151 1.1743,-3.95319 -0.11663,-1.13006 -0.47053,-2.17566 -1.05365,-3.10866 -0.88474,-1.42363 -2.24402,-2.50543 -3.82852,-3.03627 -0.99333,-0.32977 -2.04295,-0.4464 -3.12475,-0.34585 -1.45982,0.16085 -2.77889,0.73192 -3.98133,1.48395 -0.42227,0.30161 -0.84453,0.59921 -1.28289,0.8767 -1.30699,1.14212 -2.34054,2.61401 -2.87942,4.33926 -0.38607,1.18636 -0.51074,2.4813 -0.38607,3.86068 0.0844,0.55096 0.13673,0.91692 0.24531,1.27887 1.36331,6.3259 7.22674,10.50832 13.48829,9.83269 3.63147,-0.36193 7.02968,-1.99871 9.61956,-4.58457 -0.2051,-3.8808 0.15685,-7.80181 1.1743,-11.61827 0.92898,-3.51886 2.47325,-6.75621 4.4961,-9.64771 z m -74.09714,-2.26816 c 0.0121,-0.42226 0.0603,-0.83648 0.0844,-1.25874 -0.19303,0.38205 -0.36998,0.76409 -0.57508,1.15016 0.16087,0.0322 0.32575,0.0724 0.49064,0.10858 z m -57.9104,29.99678 c 1.72526,-0.60323 3.07247,-2.02686 3.79233,-4.00547 0.76812,-2.11935 0.73997,-4.59261 -0.0884,-6.96131 -0.83247,-2.36869 -2.34858,-4.31915 -4.27491,-5.49344 -1.17027,-0.71182 -2.40489,-1.07778 -3.59527,-1.07778 -0.63943,0 -1.26277,0.1045 -1.87002,0.31369 -3.70385,1.29896 -5.36476,6.22134 -3.70385,10.96677 0.83246,2.36869 2.34859,4.31915 4.27491,5.49344 1.80165,1.09789 3.74808,1.36331 5.46529,0.7641 z m 1.91829,-22.83439 c -2.00273,0.82844 -4.14622,1.31908 -6.35406,1.33113 1.8097,-0.0523 3.63549,0.39009 5.3728,1.32712 0.23325,-0.77616 0.55497,-1.66894 0.98126,-2.65825 z m 21.91747,-0.41422 c 0.0966,-0.3378 0.15282,-0.75203 -0.48258,-1.42765 -0.21717,-0.23325 -0.53487,-0.4665 -1.2105,-0.4665 -0.0161,0 -0.0362,0 -0.0563,0 -3.76417,0.0683 -10.90645,6.44253 -15.20952,11.11155 8.40504,-2.26011 16.10633,-6.39426 16.9589,-9.2174 z m -34.3119,-39.833496 c 6.00418,-3.088554 12.84082,-3.655593 19.24715,-1.600578 9.43055,3.012144 16.68543,10.226812 19.87453,19.488454 1.52015,-0.61127 3.09258,-1.21049 4.69718,-1.79763 -3.5993,-14.352934 -16.60098,-24.611919 -31.5853,-24.611919 -3.27354,0 -6.49883,0.51878 -9.63161,1.487974 -0.32977,1.962519 -0.85257,3.852649 -1.71319,5.573875 -0.24933,0.51878 -0.59921,0.965172 -0.88876,1.459824 z m 63.65317,9.691946 c -2.15958,-3.22529 -3.85266,-6.740128 -5.03902,-10.500278 -1.42363,-4.299042 -2.14349,-8.799161 -2.13142,-13.343519 -0.0121,-3.402235 0.42227,-6.760233 1.19441,-10.029756 -2.95183,-2.521515 -6.64764,-3.949167 -10.57669,-3.949167 -6.69589,0 -12.52715,3.949167 -15.08083,9.957369 0.13673,0.06434 0.2815,0.108582 0.41823,0.172927 4.51621,2.131424 8.64233,5.010856 12.24564,8.545803 6.03233,5.81919 10.31127,13.0781 12.49497,21.072951 2.33652,-0.71584 4.53631,-1.36733 6.47471,-1.92633 z m -0.59117,-46.806873 c -4.78164,-3.016165 -10.23889,-4.685111 -15.96557,-4.685111 -12.65987,0 -23.85989,8.031044 -28.13882,19.729747 3.19714,0.462478 6.3259,1.234617 9.35816,2.356631 3.16898,-7.500199 10.43593,-12.434646 18.78066,-12.434646 4.28697,0 8.34874,1.371349 11.77108,3.812432 1.06169,-3.068445 2.46521,-6.012224 4.19449,-8.779053 z m -71.78073,53.168973 c -1.4357,4.44784 -0.9129,9.3099 1.43569,13.35558 2.06306,3.58321 5.38486,6.26156 9.35414,7.54846 6.7723,2.13947 14.02718,-1.61667 16.19882,-8.39298 1.65286,-5.21596 -1.2306,-10.8019 -6.43047,-12.45073 -1.93437,-0.6153 -3.98133,-0.45043 -5.77495,0.47856 -1.78155,0.92093 -3.09257,2.4813 -3.69581,4.39154 -0.4665,1.43569 -0.34585,2.95584 0.34183,4.29099 0.68769,1.34321 1.85796,2.33652 3.28963,2.79096 1.05365,0.33379 2.16762,0.2413 3.12877,-0.26139 0.9692,-0.5027 1.68504,-1.35528 2.01883,-2.40891 0.24129,-0.73193 0.18096,-1.49602 -0.16488,-2.17165 -0.3539,-0.68768 -0.95312,-1.19038 -1.68906,-1.42363 -1.06169,-0.33379 -1.64884,-1.45983 -1.31907,-2.51749 0.33781,-1.06169 1.46384,-1.64482 2.52151,-1.31907 1.76949,0.55497 3.21725,1.76948 4.0658,3.42636 0.84051,1.6408 0.9893,3.50277 0.41422,5.2441 -0.6515,2.051 -2.0711,3.74408 -3.9934,4.74143 -1.92633,1.00136 -4.1221,1.18233 -6.19722,0.52279 -2.46119,-0.78419 -4.46795,-2.48531 -5.65029,-4.78967 -1.17831,-2.2963 -1.39146,-4.91031 -0.59117,-7.35542 0.92094,-2.91965 2.93574,-5.32052 5.67442,-6.73611 2.74671,-1.42363 5.89157,-1.68503 8.8434,-0.73593 6.43047,2.03892 10.33137,8.36483 9.59543,14.85562 2.09925,-1.72526 4.52826,-3.44245 7.43182,-5.07118 1.56037,-0.87671 3.36203,-1.75742 5.32053,-2.62608 -2.73064,-8.17985 -9.09273,-14.566074 -17.38921,-17.216276 -5.41301,-1.729269 -11.16786,-1.242661 -16.21893,1.367329 -5.05509,2.614008 -8.79514,7.041747 -10.52038,12.462797 z m -4.87011,16.68542 c -2.93975,0 -5.8795,-0.36193 -8.77905,-1.08179 l -0.46248,-0.14076 c -1.44373,-0.31368 -3.10866,-0.85257 -4.89423,-1.55634 -3.51886,-0.0482 -6.65165,1.08985 -9.24555,3.17703 -4.56447,3.63951 -5.6704,10.06193 -2.57782,14.9441 0.24532,0.44237 0.44237,0.71181 0.64747,0.99332 0.88072,1.09387 1.78959,1.85394 2.78292,2.37272 3.08855,1.64884 6.84469,1.307 9.59945,-0.85659 0.73594,-0.59519 1.34319,-1.33918 1.78557,-2.19978 0.68366,-1.33919 0.87669,-2.90357 0.5429,-4.3835 -0.22118,-0.96518 -0.65149,-1.866 -1.29091,-2.67434 -1.65688,-2.09121 -4.72935,-2.42901 -6.84067,-0.76007 -1.2306,0.98126 -1.64481,2.66629 -1.00136,4.08992 0.15281,0.35791 0.27749,0.57508 0.42628,0.75203 0.43031,0.54693 1.00539,0.86866 1.63677,0.94105 0.65552,0.0764 1.25071,-0.11261 1.74133,-0.50672 0.86866,-0.68769 2.13143,-0.55498 2.82716,0.30966 0.69573,0.86464 0.55899,2.13142 -0.30564,2.82715 -1.33515,1.07376 -3.02823,1.57243 -4.70924,1.36733 -1.70916,-0.19304 -3.24137,-1.04561 -4.31513,-2.40489 -0.36596,-0.43835 -0.68768,-0.98126 -0.98125,-1.6609 -1.38744,-3.07649 -0.49466,-6.73208 2.17968,-8.86351 3.85265,-3.05236 9.46673,-2.41293 12.49095,1.41157 1.02147,1.2869 1.7172,2.73064 2.06708,4.28698 0.53889,2.3888 0.2252,4.91031 -0.88475,7.10206 -0.0362,0.0683 -0.0885,0.12466 -0.12467,0.19303 8.39299,-1.11798 14.70683,-0.14477 17.55409,0.49064 0.66356,-4.09797 3.11268,-7.54042 6.83262,-8.8434 0.8767,-0.30966 1.78557,-0.44237 2.69846,-0.49064 -1.64883,-0.0121 -3.3218,-0.25738 -4.97064,-0.78419 -4.50816,-1.46385 -8.26832,-4.41567 -10.85015,-8.29246 -1.19038,0.12065 -2.38478,0.24129 -3.57919,0.24129 z m -2.39684,31.05847 c -0.0442,0.0844 -0.10461,0.2051 0.13271,0.60726 0.26945,0.46248 0.59117,0.67964 1.10995,0.76007 2.46924,0.374 7.13424,-2.48933 10.76168,-5.3366 -5.60203,0.77616 -11.17188,2.35663 -12.00434,3.96927 z m -17.98841,37.35623 c -6.49079,4.33925 -13.962841,6.53904 -21.446956,6.53904 -1.254725,0 -2.505428,-0.0683 -3.756132,-0.18901 -0.241293,1.18636 -0.406177,2.40489 -0.406177,3.67973 0,10.64505 8.658407,19.30345 19.307485,19.30345 0.65954,0 1.27483,-0.11662 1.91023,-0.18499 0.44238,-10.35952 1.9022,-20.10375 4.39155,-29.14822 z M 268.73485,62.205247 c 0.39813,2.61401 0.43835,5.272258 0.0966,7.910398 21.06088,5.099331 37.7262,22.174852 42.26251,43.348335 2.30436,0.0764 4.61273,0.39009 6.89295,0.99734 0.39813,0.10461 0.74801,0.29358 1.13408,0.41825 -4.29912,-26.180322 -24.4069,-47.217074 -50.38614,-52.674323 z M 212.77492,51.174123 c -6.18516,7.150324 -9.57934,16.291318 -9.5512,25.74197 -0.0121,4.122094 0.63943,8.191907 1.93437,12.10488 1.21452,3.844606 3.03226,7.375533 5.34465,10.572671 2.13142,-0.58715 3.54298,-0.957133 3.78428,-1.021483 l 2.49336,-0.647471 0.0241,2.5738 c 0,0.20107 0,1.50004 -0.19304,3.51484 3.41027,-6.169067 8.29244,-11.469475 14.30467,-15.462879 -0.49063,-0.357918 -1.00137,-0.683665 -1.46787,-1.08582 -2.12338,-1.825786 -3.76417,-4.013511 -4.85804,-6.502854 -1.81372,-3.941123 -2.19576,-8.461351 -1.05767,-12.700069 0.72791,-2.778894 2.06307,-5.312473 3.96123,-7.508242 5.58594,-6.486768 15.43474,-7.214669 21.94965,-1.604601 4.40762,3.816456 5.68648,10.130296 3.12072,15.358317 -0.54692,1.113971 -1.122,1.998714 -1.81372,2.778894 -3.86068,4.435775 -10.62494,4.926405 -15.04463,1.089842 -2.89955,-2.517493 -3.88884,-6.567198 -2.46119,-10.078016 0.30161,-0.88072 0.80833,-1.749376 1.52014,-2.56173 2.71857,-3.112683 7.49619,-3.470602 10.64908,-0.788225 0.84855,0.719858 0.94909,1.986648 0.23326,2.835197 -0.71584,0.844526 -1.98666,0.953108 -2.83118,0.229227 -1.50005,-1.262767 -3.74809,-1.101905 -5.0189,0.365962 -0.36999,0.422264 -0.61932,0.848548 -0.79225,1.339178 -0.81235,2.010777 -0.25737,4.234697 1.33918,5.622133 2.75879,2.392826 6.96533,2.071101 9.39033,-0.703771 0.45444,-0.51476 0.84051,-1.10995 1.22255,-1.894153 1.76145,-3.59527 0.88474,-7.926484 -2.13544,-10.544516 -4.83793,-4.162309 -12.14107,-3.619399 -16.27926,1.190381 -1.49602,1.733289 -2.54563,3.719937 -3.12073,5.915706 -0.8968,3.341912 -0.59518,6.892944 0.8365,10.013671 0.86865,1.96654 2.14349,3.675701 3.80841,5.103353 5.8232,4.990748 14.0312,6.068526 20.89197,2.762808 2.3325,-1.122015 4.39154,-2.706507 6.12483,-4.721305 0.60726,-0.703773 1.17429,-1.419609 1.6609,-2.199791 7.06989,-10.283115 5.26019,-24.117262 -4.16634,-32.256889 -6.28166,-5.441163 -14.30064,-8.091368 -22.56091,-7.500199 -8.28039,0.591168 -15.82481,4.383494 -21.24185,10.669184 z M 189.81989,35.936452 c -11.66654,0 -22.35985,4.616746 -30.23003,12.237591 -0.0241,0.03218 -0.0281,0.06837 -0.0563,0.100534 -0.12065,0.144777 -0.27347,0.233251 -0.41825,0.33379 -5.50148,5.489422 -9.52706,12.49497 -11.46142,20.425476 2.39282,-0.378027 4.82989,-0.579104 7.29912,-0.579104 0.85256,0 1.68906,0.09651 2.53358,0.140754 4.55641,-13.818061 17.61843,-23.349145 32.3333,-23.349145 6.55111,0 12.78854,1.918281 18.24981,5.404968 0.54291,-0.711815 1.07375,-1.423629 1.6609,-2.103273 1.50809,-1.749375 3.16898,-3.325825 4.94652,-4.725326 -7.29913,-5.151612 -15.82884,-7.886269 -24.85723,-7.886269 z m -59.47076,22.778086 c 5.22401,2.179682 9.68793,6.104719 12.48693,11.372956 0.1689,-0.04423 0.33379,-0.0925 0.50269,-0.136733 1.76547,-8.74286 5.85539,-16.500438 11.56197,-22.701676 -2.5577,-1.612643 -5.52159,-2.517493 -8.58602,-2.517493 -8.16777,0 -14.87573,6.048419 -15.96557,13.982946 z M 95.369659,84.854642 c -0.920941,8.746884 2.807037,17.642568 8.718731,23.948358 2.19979,2.34456 4.64891,4.34328 7.28705,5.93581 1.55634,0.9491 3.13681,1.76144 4.70522,2.41294 1.74133,0.70779 3.34191,1.22255 4.88619,1.57243 l 0.50672,0.1488 c 2.96388,0.73191 6.06449,1.02549 9.17719,0.87267 -1.74134,-4.39556 -1.95046,-9.29784 -0.47857,-13.85024 0.75605,-2.37673 1.93839,-4.5162 3.30571,-6.522952 -0.62333,0.281506 -1.20646,0.623333 -1.86197,0.844522 -2.6864,0.86865 -5.11944,1.09386 -7.53237,0.77214 -3.84461,-0.45444 -7.46803,-2.272182 -10.17052,-5.111394 l -0.39009,-0.470528 c -1.48798,-1.548291 -2.72662,-3.667654 -3.48669,-6.052436 -1.0094,-3.136813 -0.86463,-6.535027 0.40618,-9.559235 1.53623,-3.788305 4.68512,-6.703932 8.63026,-7.970722 4.98672,-1.58047 10.448,0.38607 13.25102,4.813801 0.59921,0.937023 1.00538,1.797635 1.28287,2.698464 0.49465,1.600578 0.58715,3.229307 0.26543,4.833908 -0.69573,3.418321 -3.1891,6.201237 -6.51492,7.270971 -3.33387,1.057669 -6.93316,-0.0925 -8.97612,-2.859326 -0.53486,-0.651492 -0.96517,-1.455803 -1.25874,-2.392825 -0.7279,-2.300328 -0.2051,-4.765542 1.3995,-6.591328 0.69976,-0.908871 1.81774,-1.681009 3.07649,-2.083165 1.05365,-0.33781 2.18773,0.245315 2.52956,1.302983 0.33781,1.05767 -0.24933,2.187727 -1.30298,2.525538 -0.48258,0.156839 -0.92094,0.450413 -1.19842,0.808332 -0.74802,0.852569 -0.96518,1.874045 -0.66758,2.823132 0.14075,0.44237 0.33379,0.80431 0.59921,1.134078 1.08582,1.459824 2.88747,2.034905 4.58055,1.500039 1.93436,-0.623341 3.39419,-2.244028 3.79635,-4.230675 0.18499,-0.92898 0.12869,-1.894152 -0.16891,-2.855304 -0.1689,-0.550953 -0.4303,-1.093863 -0.83246,-1.721225 -1.82981,-2.891498 -5.38486,-4.182417 -8.63026,-3.140834 -2.80704,0.900828 -5.04704,2.971928 -6.14493,5.674413 -0.92094,2.195769 -1.01746,4.536313 -0.28955,6.800449 0.58312,1.81372 1.51612,3.418321 2.78291,4.773585 2.23599,2.368692 4.99075,3.752109 7.93855,4.101985 1.84589,0.249342 3.6757,0.08038 5.48137,-0.506712 4.5323,-1.536233 7.97073,-4.580554 9.93726,-8.654388 0.85258,-1.713182 1.38342,-3.579184 1.5845,-5.573875 0.22521,-2.235985 -0.0201,-4.480012 -0.72388,-6.671759 -0.25336,-0.772139 -0.52682,-1.520148 -0.88474,-2.240006 -4.43175,-9.929218 -15.53929,-14.859644 -25.86262,-11.56197 -10.32333,3.273546 -17.674727,12.326066 -18.752501,23.051551 z M 63.59133,132.70713 c 0,2.42499 0.23325,4.80574 0.571061,7.15433 2.79498,-1.82578 5.980051,-3.03225 9.370222,-3.62744 -0.100534,-1.17832 -0.23325,-2.36869 -0.23325,-3.52689 0,-14.28458 7.548457,-27.37071 19.73779,-34.665807 -0.01609,0.0085 -1.21451,-4.315136 -1.278854,-4.669032 C 91.412445,91.566617 91.211367,89.728767 91.199302,87.890917 74.324859,96.396506 63.59133,113.64897 63.59133,132.70713 Z m -8.722752,33.1376 c 0.144776,7.30717 3.132791,14.12772 8.417114,19.19891 13.267108,12.76038 34.058542,12.90918 47.554888,0.43834 0.8606,-2.49337 1.82579,-4.91433 2.8553,-7.28706 -7.4439,2.37273 -14.131748,3.12073 -19.504541,3.12073 -7.946593,0 -13.045923,-1.5845 -13.572747,-1.7534 l -1.487975,-0.48259 0.100534,-1.56036 c 0.004,-0.0723 0.02815,-0.34183 0.07239,-0.69171 -2.694441,-0.76007 -5.151611,-2.1274 -7.162388,-4.08589 -2.694442,-2.58988 -4.222633,-6.08059 -4.299042,-9.82869 -0.07641,-3.74808 1.315048,-7.29911 3.912972,-10.0016 2.139468,-2.23598 5.030966,-3.50278 8.135606,-3.56712 3.2092,0.0563 6.048417,1.08583 8.280381,3.22931 0.916913,0.88072 1.616664,1.93437 2.12338,3.06442 1.717203,-1.68905 3.715917,-3.32582 6.012225,-4.87412 -0.832462,-1.83383 -1.926325,-3.54701 -3.458537,-5.01488 -1.146144,-1.12201 -2.416955,-2.08718 -3.784284,-2.88345 -4.029597,-2.44108 -8.598083,-3.46659 -13.190699,-2.96791 -4.467947,0.44639 -8.561889,2.19979 -11.847499,5.07521 -0.587147,0.47051 -1.049626,0.90484 -1.508083,1.39145 -5.079224,5.27226 -7.789752,12.18531 -7.648997,19.48041 z m 33.668454,77.12538 c 2.199791,-2.91965 4.910319,-5.3527 8.010935,-7.19055 -16.005784,-2.80302 -28.215224,-16.7538 -28.215224,-33.53574 0,-2.67836 0.394112,-5.32454 1.021474,-7.9305 -3.160941,-1.66091 -6.152978,-3.77625 -8.855462,-6.37417 -0.03218,-0.0322 -0.06032,-0.0643 -0.0925,-0.0966 -1.512105,4.44382 -2.316415,9.08067 -2.316415,13.84219 0,18.95359 12.462797,35.72347 30.447188,41.28528 z m 21.217718,31.99146 c -1.21853,-1.51613 -2.3325,-3.22126 -3.30974,-5.10335 -0.2252,0.0161 -0.44237,0.0966 -0.66757,0.0966 -1.11397,0 -2.24001,-0.22118 -3.29366,-0.6555 -2.573791,-1.03355 -4.600659,-3.02824 -5.690491,-5.61007 -1.089842,-2.5738 -1.109949,-5.41302 -0.07235,-7.99888 1.262765,-3.09257 3.691781,-5.46529 6.691861,-6.72805 0.0563,-0.0966 0.0885,-0.20913 0.1488,-0.30163 1.02148,-1.64481 3.16496,-3.57516 7.24684,-4.01753 -0.36193,-2.85932 -0.6354,-5.72267 -0.82441,-8.59405 -9.3461,0.31367 -17.80343,5.96396 -21.370549,14.74703 -1.870023,4.60066 -1.829807,9.65576 0.108581,14.24032 1.93839,4.5886 5.545724,8.14366 10.158444,10.0177 3.514844,1.42363 7.419774,1.31907 10.874294,-0.0924 z m -9.30587,-17.75918 c -0.639425,1.58449 -0.619318,3.33386 0.0482,4.92238 0.67159,1.58851 1.91827,2.81106 3.50277,3.4505 0.19303,0.0804 0.39814,0.0844 0.59519,0.13673 -1.65688,-4.28699 -2.49739,-7.97475 -2.50543,-11.03113 -0.6716,0.73594 -1.25071,1.5684 -1.6408,2.52152 z m 18.61577,20.29276 c -0.86061,-2.24 -1.71318,-4.48806 -2.47325,-6.81654 -2.00274,-6.21732 -3.60331,-12.59953 -4.7575,-18.97369 -0.18097,-1.02952 -0.29357,-2.08317 -0.45444,-3.12073 -2.13544,0.18901 -3.59526,0.89681 -4.40762,2.19979 -1.6971,2.72661 -0.95311,8.14767 2.08316,15.27789 2.41696,5.61812 6.25755,9.87694 10.00965,11.43328 z m 163.17056,-49.08709 c -25.95914,-15.75645 -55.60603,-24.14944 -86.25832,-24.14944 -29.03161,0 -57.32325,7.5927 -82.35742,21.85715 0,2.62205 0.0643,5.17976 0.20912,7.74149 0.30162,5.74278 0.96115,11.50165 1.96251,17.13584 1.118,6.1932 2.67434,12.40248 4.62077,18.44285 14.59423,44.75588 50.94506,74.82505 75.74599,74.82505 29.29702,0 85.38564,-48.84983 86.07735,-115.85294 z m 3.11671,37.64979 c 3.03225,-7.12217 3.77221,-12.54726 2.07914,-15.27387 -0.62335,-0.99734 -1.62069,-1.64481 -3.0041,-1.98664 -1.70917,10.01769 -4.52426,19.48443 -8.19191,28.29967 3.45452,-1.82176 6.88892,-5.86343 9.11687,-11.03916 z m 22.85851,-9.47479 c -1.04158,0.25738 -2.09121,0.39814 -3.14888,0.46651 -3.05638,6.6798 -9.38228,11.21209 -16.67738,11.94804 -0.48259,0.99332 -0.99333,1.93838 -1.5483,2.84323 9.65977,-0.23324 18.09297,-6.38221 21.37456,-15.25778 z m 5.29639,-34.13092 c -2.87944,-2.74271 -6.42243,-4.65295 -10.2429,-5.63823 -1.35928,-0.13673 -2.71054,-0.3378 -4.03764,-0.66757 -0.14076,-0.0121 -0.27347,-0.0523 -0.4102,-0.0603 l 0.004,-0.0683 c -2.10327,-0.55497 -4.15427,-1.32711 -6.1007,-2.36066 -1.6609,-0.87267 -3.173,-1.93839 -4.6087,-3.08855 1.18234,6.10472 2.11534,12.45475 2.70651,19.11445 0.004,0.0161 0.004,0.0322 0.004,0.0482 0.004,0.0643 0.0161,0.12065 0.0201,0.18499 0.004,0.0563 -0.0201,0.10461 -0.0161,0.16086 0,0.13673 0.0241,0.27346 -0.004,0.4102 2.2561,-2.26011 5.22803,-3.57516 8.43723,-3.65962 3.37007,-0.0885 6.51089,1.12202 8.95601,3.41833 3.45049,3.25746 4.25882,8.40906 1.96653,12.53518 -0.4866,0.90083 -0.97724,1.58449 -1.58047,2.19175 -1.5684,1.67699 -3.74407,2.66227 -6.08059,2.73063 -2.25207,0.13674 -4.54034,-0.77615 -6.23743,-2.39282 -0.80431,-0.76409 -0.83649,-2.03893 -0.0723,-2.84324 0.77213,-0.80431 2.04696,-0.83247 2.84323,-0.0724 0.9129,0.86463 2.06306,1.30298 3.34593,1.28689 1.25875,-0.0402 2.42903,-0.57508 3.30171,-1.50406 0.35791,-0.36194 0.6354,-0.75605 0.94104,-1.32711 1.41156,-2.54162 0.91691,-5.69051 -1.19441,-7.68117 -1.6609,-1.56036 -3.86873,-2.3687 -6.09265,-2.32446 -2.26414,0.0643 -4.36339,1.00539 -5.91169,2.65825 -1.19037,1.26276 -2.04697,2.71857 -2.55368,4.31512 -0.77214,2.44914 -0.66758,5.10738 0.29759,7.48009 0.60726,1.47993 1.52418,2.8151 2.71455,3.95721 4.20253,3.91298 10.34344,4.98272 15.60766,2.71857 1.7373,-0.73191 3.33387,-1.85393 4.76955,-3.33788 l 0.19305,-0.23326 c 0.37802,-0.43432 0.74398,-0.85658 1.05766,-1.33917 5.75887,-7.58867 4.84598,-18.1171 -2.02284,-24.61191 z m 23.10785,-30.27025 c 0,-14.13979 -11.51372,-25.64143 -25.6736,-25.64143 -5.50149,0 -10.76973,1.86198 -15.16529,5.1114 2.01078,1.65687 4.19047,3.06844 6.53905,4.17838 1.50808,-0.97321 3.12475,-1.7373 4.88217,-2.13946 0.75604,-0.18097 1.53624,-0.32575 2.35261,-0.35792 9.52706,-1.15016 18.47501,5.1677 20.69089,14.69477 1.43972,6.09667 0.41423,12.39443 -2.89954,17.72701 -3.31376,5.34062 -8.51765,9.06056 -14.64649,10.48016 -0.18902,0.0442 -0.38206,0.0603 -0.57107,0.10059 0.61128,0.39009 1.17027,0.85257 1.7534,1.29092 13.00168,-1.4558 22.73787,-12.27379 22.73787,-25.44438 z"
       id="path2"
       style="stroke-width:4.02155" /></g></svg>
