<svg xmlns="http://www.w3.org/2000/svg" xmlns:xlink="http://www.w3.org/1999/xlink" version="1.1" x="0px" y="0px" viewBox="0 0 100 125" enable-background="new 0 0 100 100" xml:space="preserve"><g><path fill="none" d="M62.521,51.762l0.043,0.057L62.521,51.762c-0.01-0.016-0.779-1.363-2.422-1.363   c-0.418,0-0.798,0.115-1.147,0.317c0.349-0.201,0.728-0.316,1.146-0.316C61.741,50.4,62.512,51.747,62.521,51.762z"/><path fill="none" d="M62.395,54.07c-0.056-0.031-0.2-0.095-0.394-0.159C62.194,53.976,62.338,54.039,62.395,54.07z"/><path fill="none" d="M59.67,59.303c0.2,0.059,0.171-0.347,0.285-0.376c0.119-0.032,0.119-0.032,0.12-0.032l-0.263-0.114   C59.67,58.751,59.465,59.241,59.67,59.303z"/><path fill="none" d="M57.575,56.275c0.313,0.371,1.6,1.576,4.788,1.576h0.115c3.186,0,4.476-1.199,4.795-1.57   c0.209-0.243,0.267-0.41,0.262-0.453c-0.01-0.014-0.092-0.077-0.119-0.1c-0.228,0.104-0.494,0.104-0.902,0.02   c-0.277,0.143-0.582,0.209-1.147,0.038c-0.4,0.262-1.566,0.267-1.581,0.267c-0.424,0-1.034-0.115-1.182-0.144   c-0.158,0.03-0.799,0.144-1.229,0.144c-0.014,0-1.171-0.01-1.57-0.267c-0.6,0.181-0.886,0.1-1.156-0.038   c-0.448,0.076-0.834,0.023-1.109-0.102c-0.059-0.023-0.139-0.028-0.182-0.062l0.219-0.275c0-0.001-0.001-0.001-0.001-0.001   l-0.22,0.276c0.043,0.034,0.123,0.039,0.182,0.062c-0.082,0.066-0.21,0.168-0.229,0.195C57.312,55.871,57.365,56.038,57.575,56.275   z"/><path fill="none" d="M60.654,58.865c-0.118-0.057-0.489,0.523-0.289,0.552c0.205,0.03,0.234-0.085,0.352-0.317   C60.831,58.865,60.654,58.865,60.654,58.865z"/><path fill="none" d="M56.144,35.663c-0.045,0.016-0.09,0.032-0.141,0.049c-0.134,0.047-0.286,0.1-0.462,0.171   c-0.861,0.343-1.784,0.505-2.903,0.505h0.001c1.118,0,2.041-0.162,2.904-0.505c0.176-0.071,0.328-0.123,0.462-0.171   C56.055,35.694,56.1,35.679,56.144,35.663z"/><path fill="none" d="M45.701,93.104c-0.876-0.086-1.776-0.068-2.628-0.205C43.925,93.036,44.825,93.018,45.701,93.104z"/><path fill="none" d="M56.186,34.731c-0.424-0.781-0.86-1.59-1.875-2.357c-0.924-0.704-1.572-1.033-2.123-1.076l0.001,0   c0.552,0.044,1.198,0.372,2.12,1.076C55.324,33.141,55.762,33.95,56.186,34.731z"/><path fill="none" d="M46.453,33.25c-0.114-0.038-0.171-0.062-0.209-0.062h0C46.281,33.188,46.338,33.212,46.453,33.25   c0.184,0.067,0.494,0.181,1.127,0.348c1.186,0.257,2.609,0.4,3.908,0.4h0.001c-1.3,0-2.723-0.143-3.908-0.4   C46.948,33.431,46.639,33.317,46.453,33.25z"/><path fill="none" d="M56.484,35.469c0.039-0.1-0.08-0.338-0.189-0.533l-0.109-0.205l0.108,0.205   C56.402,35.131,56.521,35.369,56.484,35.469z"/><path fill="none" d="M58.639,55.395l0.057-0.01l0.053,0.023c0.252,0.124,0.48,0.195,1.038,0.015l0.233-0.075v0.172   c0.194,0.084,0.908,0.181,1.355,0.181s1.189-0.14,1.195-0.14l0.033-0.004l0.033,0.004c0.008,0,0.704,0.14,1.146,0.14   c0.447,0,1.167-0.097,1.361-0.181v-0.172l0.232,0.075c0.562,0.19,0.781,0.104,1.033-0.015l0.053-0.023l0.057,0.01   c0.279,0.051,0.454,0.075,0.588,0.071c-0.723-0.554-2.193-1.518-2.978-1.518c-1.028,0-1.552,0.333-1.557,0.333L62.545,54.3   l-0.248-0.014c-0.005-0.005-0.548-0.338-1.581-0.338c-0.747,0-2.111,0.881-2.87,1.446c0.001,0,0.002,0,0.002,0   C58.042,55.438,58.29,55.457,58.639,55.395z"/><path fill="none" d="M65.107,58.809c-0.238,0.028-0.353,0.147-0.353,0.147c0.233,0.144,0.638,0.552,0.608,0.752   c-0.028,0.204,0.468-0.147,0.324-0.581C65.541,58.693,65.336,58.78,65.107,58.809z"/><path fill="none" d="M68.82,54.122c-0.895-1.8-1.994-3.723-3.676-3.723c-0.867,0-1.482,0.374-1.876,0.73   c0.395-0.356,1.009-0.729,1.876-0.729C66.825,50.4,67.925,52.323,68.82,54.122c0.742,1.478,1.671,1.93,2.084,2.06   c-0.366,0.375-1.342,1.408-2.08,2.551l-0.2,0.319c-0.851,1.333-1.274,1.996-2.894,2.281c1.621-0.285,2.044-0.949,2.895-2.282   l0.201-0.32c0.738-1.143,1.714-2.176,2.081-2.551C70.492,56.051,69.564,55.598,68.82,54.122z"/><path fill="none" d="M37.261,25.515c-0.248,7.575-2.009,21.039,5.856,31.094c8.375,10.699,13.727,15.35,20.935,13.488   c4.361-1.123,8.774-5.498,11.607-11.031c-0.001,0-0.001,0-0.001,0c-3.324-2.2-5.928-7.371-8.646-13.36   c-3.01-6.614-7.232-11.494-13.293-15.35C49.544,27.7,42.34,26.033,37.26,25.514 M59.945,45.452l0.52-0.076   c0.02,0.143,0.262,1.386,1.833,1.386c1.522,0,1.565-1.409,1.565-1.571h1.049c0,0.905-0.549,2.619-2.614,2.619   c-2.019,0-2.762-1.495-2.872-2.287L59.945,45.452z M50.77,36.506c-2.274-0.291-3.898-1.01-4.855-1.562   c-0.462-0.271-0.638-0.428-0.671-0.604c-0.024-0.148,0.062-0.272,0.171-0.4c0.091-0.1,0.172-0.262,0.248-0.419   c0.129-0.247,0.248-0.486,0.424-0.552c0.052-0.015,0.1-0.029,0.157-0.029c0.086,0,0.152,0.029,0.295,0.076   c0.181,0.067,0.486,0.176,1.1,0.343c1.162,0.248,2.571,0.391,3.852,0.391c0.82,0,1.496-0.057,1.81-0.157l0.058-0.02   c0.396-0.124,0.771-0.238,0.814-0.367c0.014-0.057-0.033-0.138-0.076-0.2c-0.248-0.333-1.795-1.347-2.371-1.709   c-0.043-0.028-0.066-0.08-0.053-0.128c0.01-0.052,0.049-0.09,0.102-0.1c0.699-0.115,1.484,0.19,2.688,1.104   c1.058,0.805,1.504,1.633,1.942,2.438l0.109,0.205c0.182,0.329,0.275,0.557,0.204,0.743c-0.075,0.191-0.284,0.267-0.633,0.386   c-0.129,0.048-0.28,0.1-0.45,0.166c-0.895,0.357-1.847,0.524-2.998,0.524C52.064,36.635,51.436,36.592,50.77,36.506z    M71.215,56.205c-0.014,0.008-1.291,1.252-2.189,2.65l-0.205,0.319c-1.256,1.97-1.637,2.566-6.189,2.566h-0.009   c-4.562,0-4.942-0.597-6.204-2.576l-0.2-0.31c-0.896-1.399-2.166-2.643-2.181-2.651l-0.171-0.167l0.237-0.033   c0.008-0.005,1.209-0.186,2.108-1.984c0.978-1.947,2.081-3.848,3.886-3.848c1.457,0,2.26,0.948,2.527,1.324   c0.264-0.381,1.062-1.324,2.52-1.324c1.814,0,2.957,1.986,3.885,3.848c0.906,1.799,2.111,1.979,2.119,1.985l0.238,0.033   L71.215,56.205z"/><path fill="none" d="M61.879,58.957c-0.205-0.03-0.581,0.346-0.523,0.604c0.058,0.262,0.285-0.229,0.496-0.348   C62.051,59.1,61.879,58.956,61.879,58.957z"/><path fill="none" d="M63.303,59.417c0.119,0.349,0.176,0.467,0.176,0.467c0.201,0.028,0.287-0.581,0.172-0.671   C63.536,59.127,63.184,59.07,63.303,59.417z"/><path fill="none" d="M67.673,56.123c0.101-0.182,0.119-0.314,0.063-0.405c-0.129-0.203-1.456-1.227-2.589-1.726   c1.132,0.499,2.458,1.521,2.587,1.725C67.791,55.809,67.773,55.939,67.673,56.123c-0.405,0.727-1.957,1.955-5.194,1.955h-0.115   c-2.84,0-4.375-0.943-4.983-1.667c0.607,0.725,2.143,1.668,4.985,1.668h0.113C65.717,58.079,67.27,56.852,67.673,56.123z"/><path fill="none" d="M62.631,61.514c0.757,0,1.389-0.017,1.929-0.053C64.02,61.497,63.387,61.514,62.631,61.514L62.631,61.514z"/><path d="M24.328,15.035c0,0-0.001,0.001-0.002,0.001C24.327,15.036,24.328,15.035,24.328,15.035c0.2-0.601,0.467-1.191,0.695-1.787   c-2.885,1.962-5.49,4.285-7.837,6.856c0.015,0.492,0.001,1.01,0.024,1.491c0,0,0.001,0,0.002,0c0,0-0.001,0.001-0.002,0.002   c0.428,8.575,2.842,15.302,7.384,21.082C21.553,33.008,21.443,23.752,24.328,15.035z"/><path d="M30.077,22.419c1.695-5.97,4.628-10.77,7.361-13.988c-0.001,0-0.002,0.001-0.003,0.001c0,0,0.001-0.001,0.001-0.001   c0.414-0.495,0.819-0.957,1.224-1.367c-4.095,1.081-7.951,2.728-11.498,4.861c-0.224,0.515-0.401,1.038-0.601,1.557   c0.001,0,0.001,0.001,0.002,0C22.624,23.582,22.814,34.45,27.29,45.92c0.019,0.052-0.014,0.1-0.005,0.152   c0.019,0.1,0.019,0.176-0.004,0.276c-0.024,0.1-0.053,0.171-0.11,0.257c-0.033,0.043-0.023,0.1-0.062,0.138   c-0.043,0.039-0.1,0.029-0.143,0.058c-0.043,0.028-0.062,0.085-0.109,0.104c-0.09,0.033-0.186,0.052-0.276,0.052   c-0.186,0-0.348-0.085-0.485-0.209c-0.019-0.014-0.048-0.005-0.062-0.023c-6.17-6.38-9.484-13.736-10.26-23.382   c-0.001,0.002-0.002,0.004-0.004,0.005c0-0.002,0.001-0.003,0.002-0.005c-0.043-0.514-0.052-1.057-0.081-1.59   c-1.171,1.424-2.223,2.942-3.213,4.504c0.052,0.571,0.052,1.204,0.119,1.761c0.001,0,0.002-0.001,0.003-0.002   c0,0.001-0.001,0.001-0.001,0.002c1.804,15.483,9.131,24.343,15.378,29.157c5.185,3.999,10.398,5.896,13.26,6.709   C27.144,47.01,27.33,32.094,30.077,22.419z"/><path d="M11.983,55.643c-2.471-2.953-4.19-6.143-5.228-9.533c-0.271-0.891-0.495-1.8-0.667-2.724   C5.765,45.553,5.541,47.748,5.541,50c0,3.062,0.333,6.042,0.919,8.938c0.462,0.561,0.928,1.108,1.414,1.631   c10.874,11.65,27.705,13.466,27.938,13.483c0.419,0.038,0.724,0.41,0.686,0.829c-0.038,0.395-0.367,0.689-0.757,0.689   c-0.024,0-0.048,0-0.072-0.004c-0.224-0.021-15.688-1.657-26.914-11.941c0,0.001,0,0.002,0.001,0.002c0,0,0,0-0.001-0.001   c-0.548-0.505-1.062-1.071-1.585-1.614c0.686,2.49,1.581,4.896,2.676,7.194c0.732,0.705,1.47,1.371,2.208,1.995   c-0.004-0.007-0.006-0.014-0.01-0.021c0.003,0.006,0.007,0.013,0.01,0.02c8.651,7.321,17.602,9.551,24.586,9.846   c10.351,0.425,19.178-3.138,22.458-5.069C49.791,75.21,23.8,69.764,11.983,55.643z"/><path d="M76.59,67.051c-2.086,4.027-8.256,13.889-20.605,18.674c-8.97,3.476-19.253,3.479-30.675,0.094   c-0.995-0.295-2.009-0.657-3.023-1.004c5.466,4.336,12.012,7.408,19.268,8.803c1.466-0.139,2.861-0.305,4.147-0.514   c-0.876-0.086-1.776-0.067-2.628-0.205c0.852,0.137,1.752,0.119,2.628,0.205c13.665-2.22,17.234-7.951,17.283-8.027   c0.209-0.367,0.67-0.481,1.037-0.276c0.361,0.209,0.485,0.671,0.281,1.033c-0.166,0.29-2.828,4.675-12.218,7.44   c-1.385,0.403-2.952,0.767-4.642,1.086c0.848,0.047,1.7,0.1,2.557,0.1c2.371,0,4.742-0.189,7.051-0.557   c3.523-0.562,6.871-1.559,10.041-2.866c0.477-0.538,0.914-1.108,1.361-1.671h0.001c2.471-3.118,4.456-6.527,5.813-9.693   C76.371,74.759,77.195,70.141,76.59,67.051z"/><path d="M80.411,49.387l-0.001-0.001c-0.243-0.729-0.562-1.419-0.844-2.124v0.001c-0.98-2.433-2.119-4.771-3.58-6.913   c-8.58-12.55-23.516-16.883-31.252-18.335l0.002-0.002c-2.971-0.557-4.914-0.705-4.98-0.709c-0.138-0.01-0.238-0.095-0.347-0.167   h-0.007c-0.212-0.146-0.377-0.351-0.363-0.625c0.224-4.223,2.88-8.237,7.28-11.012c2.071-1.31,4.371-2.209,6.781-2.781V6.717   c1.215-0.286,2.447-0.5,3.709-0.6C54.585,5.774,52.318,5.541,50,5.541c-2.828,0-5.589,0.295-8.27,0.8   c-0.476,0.347-1.019,0.819-1.605,1.395c-2.79,2.723-6.537,7.865-8.589,15.102c-2.738,9.646-2.814,24.734,12.379,41.831   c0.214,0.238,0.257,0.59,0.1,0.871c-0.133,0.248-0.39,0.396-0.667,0.396c-0.038,0-0.081-0.004-0.119-0.01   c-0.328-0.053-8.141-1.371-16.125-7.504c-6.232-4.783-13.459-13.454-15.711-28.237c0,0,0,0.001,0,0.001c0-0.001,0-0.001,0-0.002   c-0.091-0.571-0.214-1.09-0.286-1.676c-1.695,3.062-3.009,6.347-3.952,9.789c-0.005,1.205,0.043,2.391,0.2,3.547   c0,0,0-0.001,0.001-0.002c0,0.001,0,0.002-0.001,0.003c0.624,4.656,2.557,8.946,5.794,12.822   c13.34,15.938,44.05,19.888,47.949,19.888c0.232,0,0.457,0.108,0.601,0.295c0.143,0.182,0.194,0.424,0.138,0.651   c-0.376,1.505-7.789,5.347-16.944,6.646c-2.267,0.319-4.457,0.473-6.556,0.473c-9.778,0-17.72-3.285-24.052-7.812   c0-0.001-0.001-0.002-0.002-0.003c-0.824-0.591-1.624-1.195-2.395-1.824c2.014,3.356,4.466,6.418,7.279,9.119   c0.849,0.338,1.662,0.586,2.494,0.884c0.001,0.001,0.002,0.002,0.003,0.003c12.736,4.58,24.082,5.08,33.771,1.318   c14.808-5.736,20.521-19.443,20.578-19.582c0.113-0.275,0.375-0.462,0.676-0.477c0.305-0.005,0.576,0.152,0.709,0.424   c1.666,3.352,1.02,9.184-1.732,15.602c-1.053,2.452-2.489,5.05-4.202,7.562c-0.001,0.001-0.003,0.002-0.004,0.003   c-0.403,0.596-0.806,1.186-1.242,1.768c3.442-1.742,6.608-3.91,9.441-6.438c0.166-0.608,0.365-1.235,0.518-1.834   c0.001-0.001,0.002-0.002,0.003-0.003C83.291,68.975,83.372,58.285,80.411,49.387z M64.052,70.098   c-7.208,1.861-12.56-2.789-20.935-13.488c-7.865-10.055-6.104-23.52-5.856-31.094l-0.001-0.001   c5.08,0.519,12.284,2.186,16.459,4.842c6.061,3.856,10.283,8.736,13.293,15.35c2.719,5.989,5.322,11.16,8.646,13.36   c0,0,0,0,0.001,0C72.826,64.6,68.413,68.975,64.052,70.098z"/><path d="M91.95,61.346c0.071,0.967,0.081,2.01,0.128,3.004c1.523-4.514,2.381-9.33,2.381-14.35c0-10.865-3.928-20.82-10.427-28.552   c-1.271-1.005-2.585-1.909-3.942-2.704c-4.266-2.514-8.908-4.062-13.949-4.49c-3.623-0.31-6.914,0.005-9.521,0.485   c4.385,0.262,10.402,1.462,16.281,5.333c0.467,0.31,0.929,0.667,1.391,1.004c0.438,0.324,0.881,0.619,1.314,0.972   c2.16,1.766,4.056,3.895,5.804,6.223c0.305,0.404,0.637,0.775,0.932,1.204v0C87.712,37.269,90.939,47.914,91.95,61.346"/><path d="M69.029,54.02c-0.928-1.861-2.07-3.848-3.885-3.848c-1.457,0-2.256,0.943-2.52,1.324c-0.268-0.376-1.07-1.324-2.527-1.324   c-1.805,0-2.908,1.9-3.886,3.848c-0.899,1.799-2.101,1.979-2.108,1.984l-0.237,0.033l0.171,0.167   c0.015,0.009,1.285,1.252,2.181,2.651l0.2,0.31c1.262,1.979,1.643,2.576,6.204,2.576h0.009c4.553,0,4.934-0.597,6.189-2.566   l0.205-0.319c0.898-1.398,2.176-2.643,2.189-2.65l0.172-0.167l-0.238-0.033C71.141,55.999,69.936,55.818,69.029,54.02z    M60.1,50.399c1.643,0,2.412,1.347,2.422,1.362l0.043,0.058l-0.043-0.057c-0.01-0.015-0.78-1.362-2.424-1.362   c-0.418,0-0.797,0.115-1.146,0.316C59.302,50.514,59.682,50.399,60.1,50.399z M62.395,54.07c-0.057-0.031-0.2-0.095-0.394-0.159   C62.194,53.976,62.339,54.039,62.395,54.07z M60.716,53.948c1.033,0,1.576,0.333,1.581,0.338l0.248,0.014l0.028-0.019   c0.005,0,0.528-0.333,1.557-0.333c0.784,0,2.255,0.964,2.978,1.518c-0.134,0.004-0.309-0.021-0.588-0.071l-0.057-0.01l-0.053,0.023   c-0.252,0.119-0.471,0.205-1.033,0.015l-0.232-0.075v0.172C64.95,55.604,64.23,55.7,63.783,55.7c-0.442,0-1.139-0.14-1.146-0.14   l-0.033-0.004l-0.033,0.004c-0.006,0-0.748,0.14-1.195,0.14s-1.161-0.097-1.355-0.181v-0.172l-0.233,0.075   c-0.558,0.181-0.786,0.109-1.038-0.015l-0.053-0.023l-0.057,0.01c-0.349,0.062-0.597,0.043-0.791,0c0,0-0.001,0-0.002,0   C58.604,54.829,59.969,53.948,60.716,53.948z M57.355,55.585l0.22-0.276c0,0,0.001,0,0.001,0.001l-0.219,0.275   c0.043,0.033,0.123,0.038,0.182,0.062c0.275,0.125,0.661,0.178,1.109,0.102c0.271,0.138,0.557,0.219,1.156,0.038   c0.399,0.257,1.557,0.267,1.57,0.267c0.43,0,1.07-0.113,1.229-0.144c0.147,0.028,0.758,0.144,1.182,0.144   c0.015,0,1.181-0.005,1.581-0.267c0.565,0.171,0.87,0.104,1.147-0.038c0.408,0.085,0.675,0.085,0.902-0.02   c0.027,0.022,0.109,0.086,0.119,0.1c0.005,0.043-0.053,0.21-0.262,0.453c-0.319,0.371-1.609,1.57-4.795,1.57h-0.115   c-3.188,0-4.475-1.205-4.788-1.576c-0.21-0.237-0.263-0.404-0.267-0.434c0.019-0.027,0.146-0.129,0.229-0.195   C57.479,55.624,57.398,55.619,57.355,55.585z M59.955,58.927c-0.114,0.029-0.085,0.435-0.285,0.376   c-0.205-0.062,0-0.552,0.143-0.522l0.263,0.114C60.074,58.895,60.074,58.895,59.955,58.927z M60.717,59.1   c-0.117,0.232-0.146,0.348-0.352,0.317c-0.2-0.028,0.171-0.608,0.289-0.552C60.654,58.865,60.831,58.865,60.717,59.1z    M61.852,59.213c-0.211,0.119-0.438,0.609-0.496,0.348c-0.058-0.258,0.318-0.634,0.523-0.604   C61.879,58.956,62.051,59.1,61.852,59.213z M62.479,58.079h-0.113c-2.843,0-4.378-0.943-4.985-1.668   c0.608,0.724,2.144,1.667,4.983,1.667L62.479,58.079c3.237-0.001,4.789-1.229,5.193-1.957c0.102-0.183,0.119-0.313,0.062-0.405   c-0.129-0.203-1.455-1.226-2.587-1.725c1.133,0.499,2.46,1.522,2.589,1.726c0.056,0.091,0.037,0.224-0.063,0.405   C67.27,56.852,65.717,58.079,62.479,58.079z M63.479,59.884c0,0-0.057-0.118-0.176-0.467c-0.119-0.347,0.233-0.29,0.348-0.204   C63.766,59.303,63.68,59.912,63.479,59.884z M62.631,61.514L62.631,61.514c0.756,0,1.389-0.017,1.929-0.053   C64.02,61.497,63.388,61.514,62.631,61.514z M65.363,59.708c0.029-0.2-0.375-0.608-0.608-0.752c0,0,0.114-0.119,0.353-0.147   c0.229-0.028,0.434-0.115,0.58,0.318C65.831,59.561,65.335,59.912,65.363,59.708z M68.826,58.73l-0.201,0.32   c-0.851,1.333-1.273,1.997-2.895,2.282c1.619-0.285,2.043-0.948,2.894-2.281l0.2-0.319c0.738-1.143,1.714-2.176,2.08-2.551   c-0.413-0.13-1.342-0.582-2.084-2.059c-0.896-1.8-1.995-3.723-3.676-3.723c-0.867,0-1.481,0.373-1.876,0.729   c0.394-0.356,1.009-0.73,1.876-0.73c1.682,0,2.781,1.923,3.676,3.723c0.744,1.476,1.672,1.929,2.087,2.058   C70.54,56.555,69.564,57.588,68.826,58.73z"/><path d="M56.085,35.945c0.349-0.119,0.558-0.195,0.633-0.386c0.071-0.186-0.022-0.414-0.204-0.743l-0.109-0.205   c-0.438-0.805-0.885-1.633-1.942-2.438c-1.204-0.914-1.989-1.219-2.688-1.104c-0.053,0.01-0.092,0.048-0.102,0.1   c-0.014,0.048,0.01,0.1,0.053,0.128c0.576,0.362,2.123,1.376,2.371,1.709c0.043,0.062,0.09,0.143,0.076,0.2   c-0.043,0.129-0.419,0.243-0.814,0.367l-0.058,0.02c-0.313,0.1-0.989,0.157-1.81,0.157c-1.281,0-2.69-0.143-3.852-0.391   c-0.614-0.167-0.919-0.276-1.1-0.343c-0.143-0.047-0.209-0.076-0.295-0.076c-0.057,0-0.105,0.014-0.157,0.029   c-0.176,0.066-0.295,0.305-0.424,0.552c-0.076,0.157-0.157,0.319-0.248,0.419c-0.109,0.128-0.195,0.252-0.171,0.4   c0.033,0.176,0.209,0.333,0.671,0.604c0.957,0.552,2.581,1.271,4.855,1.562c0.666,0.086,1.295,0.129,1.867,0.129   c1.151,0,2.104-0.167,2.998-0.524C55.805,36.045,55.956,35.993,56.085,35.945z M51.488,33.998c-1.299,0-2.722-0.143-3.908-0.4   c-0.633-0.167-0.943-0.281-1.128-0.348c-0.114-0.038-0.171-0.062-0.208-0.062h0c0.038,0,0.095,0.024,0.209,0.062   c0.186,0.067,0.495,0.181,1.128,0.348C48.767,33.855,50.189,33.998,51.488,33.998L51.488,33.998z M52.188,31.298L52.188,31.298   c0.55,0.042,1.198,0.372,2.122,1.076c1.015,0.767,1.451,1.576,1.875,2.357l0.109,0.205c0.109,0.195,0.229,0.433,0.189,0.533   c0.037-0.1-0.082-0.338-0.19-0.533l-0.108-0.205c-0.424-0.781-0.861-1.59-1.877-2.357C53.387,31.67,52.74,31.342,52.188,31.298z    M52.639,36.388L52.639,36.388c1.118,0,2.041-0.162,2.902-0.505c0.176-0.071,0.328-0.124,0.462-0.171   c0.051-0.018,0.096-0.033,0.141-0.049c-0.044,0.016-0.089,0.032-0.139,0.049c-0.134,0.048-0.286,0.1-0.462,0.171   C54.68,36.226,53.757,36.388,52.639,36.388z"/><path d="M62.298,47.81c2.065,0,2.614-1.714,2.614-2.619h-1.049c0,0.162-0.043,1.571-1.565,1.571c-1.571,0-1.813-1.243-1.833-1.386   l-0.52,0.076l-0.52,0.071C59.536,46.315,60.279,47.81,62.298,47.81z"/></g><path d="M59.242,7.575c-4.372-0.077-8.575,0.98-12.108,3.208c-3.718,2.347-6.056,5.623-6.503,9.074  c1.114,0.114,3.356,0.41,6.247,1.043h-0.001c1.138,0.248,2.385,0.562,3.693,0.929h0.003c8.313,2.339,19.568,7.276,26.659,17.654  c0.996,1.452,1.867,2.971,2.644,4.551h0.001c0.327,0.657,0.564,1.372,0.852,2.052c3.856,9.127,4.371,20.201,1.489,33.107  c0,0.001-0.001,0.002-0.001,0.002c-0.143,0.646-0.246,1.274-0.408,1.933c3.731-3.813,6.746-8.289,8.902-13.231  c-0.018-0.809-0.07-1.58-0.104-2.371c-0.58-14.135-3.414-25.391-8.504-33.594c-0.299-0.485-0.595-0.985-0.908-1.447h-0.002  c-1.908-2.795-4.08-5.237-6.551-7.256c-0.957-0.781-1.929-1.447-2.904-2.071h-0.002c-0.552-0.352-1.098-0.69-1.649-0.994  l0.001-0.001c-9.87-5.432-19.673-3.666-19.777-3.642c-0.386,0.071-0.752-0.157-0.867-0.519c-0.119-0.371,0.062-0.767,0.414-0.923  c0.286-0.129,7.142-3.128,16.345-2.343c2.771,0.229,5.945,0.9,9.279,2.157c0,0,0,0-0.001,0c1.237,0.472,2.489,1.043,3.766,1.708  c-3.886-3.409-8.354-6.137-13.255-8.037C63.74,7.917,61.475,7.607,59.242,7.575"/><text x="0" y="115" fill="#000000" font-size="5px" font-weight="bold" font-family="'Helvetica Neue', Helvetica, Arial-Unicode, Arial, Sans-serif">Created by Blaise Sewell</text><text x="0" y="120" fill="#000000" font-size="5px" font-weight="bold" font-family="'Helvetica Neue', Helvetica, Arial-Unicode, Arial, Sans-serif">from the Noun Project</text></svg>